<defs>
<font horiz-adv-x="1088" ><font-face
    font-family="charissili"
    units-per-em="2048"
    panose-1="2 0 6 0 6 0 0 9 0 4"
    ascent="2450"
    descent="-900"
    alphabetic="0" />
<missing-glyph horiz-adv-x="1400" d="M150 50H1250V1750H150V50ZM100 1800H1300V0H100V1800Z" />
<glyph unicode=" " glyph-name="space" horiz-adv-x="600" />
<glyph unicode="!" glyph-name="exclam" horiz-adv-x="692" d="M401 100Q401 51 365 17T266 -18Q244 -18 221 -11T178 12T147 49T135 100Q135 127 145 149T173 188T215 214T266 223Q293 223 317 214T360 189T390 151T401 100ZM608 1294Q550 1068 501 875Q480 793
459 711T420 556T388 429T367 346H238L342 1231Q347 1270 357 1301T387 1354T435 1387T506 1399Q608 1399 608 1294Z" />
<glyph unicode="&quot;" glyph-name="quotedbl" horiz-adv-x="678" d="M440 1384Q440 1373 429 1335T401 1243T363 1129T324 1014T290 919T270 864H205L231 1321Q233 1352 240 1377T261 1422T298 1451T356 1462Q391 1462 415 1442T440 1384ZM770 1384Q770 1373
759 1335T730 1243T692 1129T652 1014T618 919T598 864H532L557 1321Q559 1352 566 1377T588 1422T626 1451T684 1462Q721 1462 745 1442T770 1384Z" />
<glyph unicode="#" glyph-name="numbersign" horiz-adv-x="1522" d="M692 862L594 569H891L989 862H692ZM1104 862L1006 569H1335V467H971L797 -47L694 -14L856 467H559L385 -47L283 -12L446 467H156V569H479L580 862H250V967H614L778 1450L883 1417L727 967H1026L1188
1450L1294 1417L1139 967H1425V862H1104Z" />
<glyph unicode="$" glyph-name="dollar" horiz-adv-x="1139" d="M762 371Q762 437 727 488T616 575L526 113Q641 141 701 208T762 371ZM627 1268Q578 1253 538 1230T470 1175T426 1104T410 1020Q410 951 444 903T541 823L627 1268ZM1001 1010H881L891 1210Q891
1217 883 1227T868 1241Q866 1242 856 1247T829 1257T792 1268T745 1276L649 768Q717 746 777 714T881 640T951 545T977 426Q977 347 952 286T885 178T791 99T686 46T585 15T502 2L463 -209H342L381 0Q327 3 280 10T191 28T109 54T29 90L94 412H231L213 176Q213
168 217 164T227 158Q231 156 247 149T288 132T341 115T403 104L504 627Q439 654 385 688T290 763T228 855T205 965Q205 1052 241 1123T339 1245T480 1328T647 1368L676 1522H793L768 1374Q818 1372 866 1364T954 1347T1025 1328T1067 1315L1001 1010Z" />
<glyph unicode="%" glyph-name="percent" horiz-adv-x="1761" d="M645 1161Q645 1188 642 1217T627 1272T594 1313T539 1329Q492 1329 455 1300T390 1223T342 1116T310 999T291 888T285 801Q285 773 289 742T306 685T340 642T397 625Q443 625 479 655T542 734T589
842T621 962T639 1074T645 1161ZM1532 582Q1532 609 1528 638T1513 692T1480 733T1423 750Q1377 750 1341 721T1276 644T1228 537T1196 419T1177 308T1171 221Q1171 193 1175 162T1191 105T1225 61T1282 43Q1327 43 1363 73T1427 152T1475 261T1507 382T1526 495T1532
582ZM797 1122Q797 1062 786 997T752 867T695 745T615 643T510 573T381 547Q316 547 270 569T194 631T151 722T137 834Q137 894 148 959T182 1088T239 1210T320 1311T425 1381T555 1407Q620 1407 666 1385T741 1324T783 1233T797 1122ZM401 0H272L1419 1374H1546L401
0ZM1681 543Q1681 483 1670 417T1636 287T1579 165T1499 63T1395 -7T1266 -33Q1201 -33 1155 -11T1080 51T1038 142T1024 254Q1024 314 1035 380T1069 509T1126 630T1206 731T1311 801T1440 827Q1505 827 1551 805T1626 744T1668 654T1681 543Z" />
<glyph unicode="&amp;" glyph-name="ampersand" horiz-adv-x="1442" d="M432 672Q344 615 293 543T242 377Q242 315 263 265T319 180T400 126T496 106Q532 106 564 112T630 133T697 168T772 219L432 672ZM836 1112Q836 1148 826 1182T797 1242T748 1284T682 1300Q645
1300 605 1286T530 1244T474 1174T451 1073Q451 1036 461 1000T487 929T523 863T565 805Q625 829 675 858T760 924T816 1007T836 1112ZM1231 631Q1188 540 1122 444T977 264Q1012 216 1046 184T1118 131T1202 102T1307 92V2Q1257 0 1222 -2T1157 -6Q1125 -8 1095
-7T1036 0Q1011 4 988 13T941 39T892 79T840 137Q795 103 746 74T642 24T525 -10T391 -23Q314 -23 248 0T132 67T54 174T25 317Q25 393 52 456T128 573T240 671T377 752Q354 784 334 816T298 880T275 947T266 1018Q266 1101 301 1171T397 1292T541 1372T723 1401Q807
1401 866 1378T963 1317T1018 1230T1036 1130Q1036 1056 1006 997T920 890T789 804T621 735L909 354Q962 413 1002 480T1067 600Q1068 602 1065 607T1059 617T1052 625T1047 629L942 647V741H1378V647L1231 631Z" />
<glyph unicode="&apos;" glyph-name="quotesingle" horiz-adv-x="348" d="M451 1384Q451 1373 439 1335T409 1243T370 1129T328 1014T293 919T272 864H205L231 1321Q234 1352 241 1377T264 1422T303 1451T362 1462Q401 1462 426 1442T451 1384Z" />
<glyph unicode="(" glyph-name="parenleft" horiz-adv-x="858" d="M938 1376Q853 1365 783 1323T655 1218T552 1074T472 905T414 724T375 545T353 381T346 246Q346 132 368 54T430 -77T523 -157T637 -199L618 -293Q514 -287 428 -243T278 -123T180 56T145 285Q145
407 167 539T233 798T344 1042T501 1250T705 1399T956 1470L938 1376Z" />
<glyph unicode=")" glyph-name="parenright" horiz-adv-x="856" d="M711 909Q711 739 683 588T603 308T478 74T315 -109T121 -233T-98 -295L-80 -197Q9 -185 81 -141T212 -29T315 122T393 298T448 483T484 662T504 820T510 942Q510 973 506 1014T492 1100T461
1190T409 1273T331 1338T221 1376L240 1470Q349 1458 426 1419T556 1327T639 1212T686 1092T706 985T711 909Z" />
<glyph unicode="*" glyph-name="asterisk" horiz-adv-x="1024" d="M537 743L393 690L397 842L604 1008L631 989L537 743ZM598 1036L332 1051L240 1167L383 1210L604 1065L598 1036ZM748 743L653 989L680 1008L887 842L891 690L748 743ZM655 1085H629L557 1341L641
1466L727 1341L655 1085ZM952 1051L688 1036L680 1065L899 1210L1044 1167L952 1051Z" />
<glyph unicode="+" glyph-name="plus" horiz-adv-x="2048" d="M1087 551V0H961V551H410V678H961V1229H1087V678H1638V551H1087Z" />
<glyph unicode="," glyph-name="comma" horiz-adv-x="573" d="M326 96Q326 9 289 -68T191 -205T50 -303T-113 -348L-98 -274Q-35 -261 12 -238T94 -180T151 -97T184 14H55Q44 28 40 45T35 80Q35 111 48 141T82 196T132 235T193 250Q229 250 254 239T295 206T318
157T326 96Z" />
<glyph unicode="-" glyph-name="hyphen" horiz-adv-x="653" d="M553 424H61L88 563H580L553 424Z" />
<glyph unicode="." glyph-name="period" horiz-adv-x="573" d="M311 113Q311 84 300 59T270 16T226 -14T172 -25Q143 -25 119 -14T76 15T48 59T37 113Q37 141 47 166T76 209T118 239T172 250Q200 250 225 239T270 210T300 166T311 113Z" />
<glyph unicode="/" glyph-name="slash" horiz-adv-x="1004" d="M131 -190H0L872 1374H1004L131 -190Z" />
<glyph unicode="0" glyph-name="zero" horiz-adv-x="1139" d="M907 981Q907 1065 892 1125T851 1225T790 1284T715 1303Q651 1303 596 1262T493 1152T409 992T346 799T307 594T293 393Q293 288 313 225T362 129T425 85T487 74Q547 74 602 114T703 223T787 383T851
575T892 780T907 981ZM1128 946Q1128 826 1107 707T1046 480T949 277T818 115T656 7T467 -33Q372 -33 298 -2T174 87T97 231T70 426Q70 534 88 648T144 872T236 1078T366 1249T532 1364T735 1407Q837 1407 911 1372T1033 1274T1104 1128T1128 946Z" />
<glyph unicode="1" glyph-name="one" horiz-adv-x="1139" d="M623 147Q619 130 628 119T662 106L815 96V0H172V96L379 106Q396 108 405 120T418 147L627 1219L305 1178V1270L791 1407H866L623 147Z" />
<glyph unicode="2" glyph-name="two" horiz-adv-x="1139" d="M1096 1102Q1096 1032 1072 963T1005 827T906 697T782 575Q718 518 652 466T516 365T378 267T238 170H811L881 344H1004L940 0H-43L-16 133Q132 238 254 328T473 499T643 651T764 793T836 932T860 1077Q860
1135 844 1176T800 1244T733 1282T651 1294Q624 1294 598 1289T550 1277T511 1261T481 1247L438 1030Q433 1026 424 1020T400 1008T367 998T324 993Q307 993 288 997T251 1011T223 1038T211 1083Q211 1140 251 1197T361 1301T522 1377T717 1407Q797 1407 866 1390T986
1337T1066 1242T1096 1102Z" />
<glyph unicode="3" glyph-name="three" horiz-adv-x="1139" d="M1096 1116Q1096 1062 1074 1007T1005 900T888 806T719 733Q786 723 840 704T932 652T991 575T1012 469Q1012 371 965 281T835 121T639 9T395 -33Q291 -33 219 -11T101 46T36 119T16 193Q16 207 22
227T43 266T82 298T143 311Q169 311 192 306T233 293L264 119Q271 114 285 106T320 91T364 78T418 72Q492 72 558 100T675 178T754 294T784 438Q784 510 759 554T697 621T622 651T555 659Q517 659 482 655T412 645L430 772Q528 767 608 790T745 856T833 959T864
1090Q864 1150 843 1190T791 1256T723 1292T657 1303Q624 1303 595 1296T543 1279T503 1258T475 1239L444 1044Q437 1042 424 1038T395 1029T363 1021T332 1018Q313 1018 294 1024T260 1042T235 1074T225 1118Q225 1179 268 1232T382 1324T543 1385T725 1407Q903
1407 999 1333T1096 1116Z" />
<glyph unicode="4" glyph-name="four" horiz-adv-x="1139" d="M272 555H690L799 1098L272 555ZM1042 414H852L762 -55H569L662 414H43L70 551L895 1407H1047L883 555H1069L1042 414Z" />
<glyph unicode="5" glyph-name="five" horiz-adv-x="1139" d="M1079 1208H483L403 811Q441 822 493 832T614 842Q684 842 753 826T878 770T967 668T1001 512Q1001 438 978 369T914 240T814 129T685 43T532 -13T362 -33Q199 -33 110 18T20 158Q20 182 29 205T55
245T98 272T158 283Q175 283 192 281T221 274L276 100Q308 89 340 81T410 72Q487 72 555 104T674 189T754 313T784 459Q784 536 755 586T678 665T569 707T444 719Q423 719 394 717T333 712T273 706T223 700L360 1374H1110L1079 1208Z" />
<glyph unicode="6" glyph-name="six" horiz-adv-x="1139" d="M846 502Q846 569 832 623T787 715T711 774T600 795Q569 795 538 790T474 773T405 740T328 688Q326 678 319 649T305 580T293 498T287 418Q287 366 296 305T330 192T399 105T514 70Q578 70 638 105T744
199T818 337T846 502ZM1063 555Q1063 436 1020 330T900 143T723 15T504 -33Q456 -33 405 -25T306 5T215 61T140 148T89 273T70 440Q70 565 100 685T189 915T331 1118T522 1284T759 1404T1036 1468L1038 1356Q905 1341 793 1294T594 1176T447 1014T358 821Q433 871
514 898T688 926Q770 926 839 901T957 827T1035 711T1063 555Z" />
<glyph unicode="7" glyph-name="seven" horiz-adv-x="1139" d="M1221 1286L289 -29L276 -76H74L985 1208H389L324 1024H193L262 1374H1237L1221 1286Z" />
<glyph unicode="8" glyph-name="eight" horiz-adv-x="1139" d="M815 373Q815 421 786 462T708 539T597 607T469 670Q419 643 377 609T303 534T254 445T236 340Q236 286 254 239T306 156T390 99T504 78Q569 78 626 103T725 170T791 264T815 373ZM891 1100Q891 1147
877 1185T838 1251T775 1294T692 1309Q635 1309 585 1287T497 1225T438 1134T416 1024Q416 982 434 947T487 882T569 826T678 774Q726 799 765 832T832 906T875 995T891 1100ZM1085 1118Q1085 1037 1061 977T994 872T896 793T778 731Q818 713 863 688T946 625T1009
540T1034 428Q1034 333 991 250T871 103T691 4T467 -33Q362 -33 281 -9T144 59T60 166T31 303Q31 353 48 409T105 521T212 629T377 725Q325 753 293 784T242 849T218 915T211 979Q211 1063 245 1140T344 1277T502 1372T711 1407Q804 1407 874 1385T991 1323T1061
1232T1085 1118Z" />
<glyph unicode="9" glyph-name="nine" horiz-adv-x="1139" d="M924 977Q924 1077 901 1141T843 1243T767 1295T688 1309Q620 1309 560 1273T455 1177T383 1037T356 870Q356 794 379 741T437 655T515 606T598 590Q653 590 702 606T789 644T853 686T885 715Q896
778 910 845T924 977ZM1141 979Q1141 828 1099 699T983 460T811 261T601 100T370 -24T137 -113L94 -16Q203 26 302 74T491 188T664 343T821 555Q787 538 749 522T671 494T589 475T506 467Q442 467 376 486T256 549T168 661T133 829Q133 949 178 1054T302 1238T490
1361T723 1407Q758 1407 803 1402T894 1381T984 1336T1064 1260T1120 1143T1141 979Z" />
<glyph unicode=":" glyph-name="colon" horiz-adv-x="573" d="M311 113Q311 84 300 59T270 16T226 -14T172 -25Q143 -25 119 -14T75 15T46 59T35 113Q35 141 45 166T75 209T118 239T172 250Q200 250 225 239T270 210T300 166T311 113ZM461 874Q461 846 450 821T420
778T376 748T322 737Q293 737 268 748T225 777T195 821T184 874Q184 902 195 927T224 971T268 1001T322 1012Q350 1012 375 1001T420 972T450 928T461 874Z" />
<glyph unicode=";" glyph-name="semicolon" horiz-adv-x="573" d="M326 98Q326 11 289 -67T191 -205T50 -303T-113 -348L-98 -274Q-35 -261 12 -238T94 -181T151 -98T184 14H55Q44 28 40 47T35 84Q35 114 48 143T83 197T133 235T193 250Q228 250 253 239T295 207T318
158T326 98ZM461 874Q461 846 450 821T420 778T376 748T322 737Q293 737 268 748T225 777T195 821T184 874Q184 902 195 927T224 971T268 1001T322 1012Q350 1012 375 1001T420 972T450 928T461 874Z" />
<glyph unicode="&lt;" glyph-name="less" horiz-adv-x="2048" d="M410 551V678L1638 1149V1022L541 614L1638 207V80L410 551Z" />
<glyph unicode="=" glyph-name="equal" horiz-adv-x="2048" d="M410 365V492H1638V365H410ZM410 737V864H1638V737H410Z" />
<glyph unicode="&gt;" glyph-name="greater" horiz-adv-x="2048" d="M410 80V207L1507 614L410 1022V1149L1638 678V551L410 80Z" />
<glyph unicode="?" glyph-name="question" horiz-adv-x="995" d="M465 90Q465 66 457 44T431 5T390 -22T334 -33Q302 -33 277 -23T234 4T207 42T197 88Q197 112 206 134T233 174T276 202T334 213Q365 213 389 203T431 176T456 136T465 90ZM948 1112Q948 1009 907
928T799 783T649 672T481 590L434 346H297L352 651Q422 673 489 712T608 807T693 934T725 1092Q725 1197 668 1251T512 1305L387 1102H328Q275 1102 245 1124T215 1186Q215 1216 232 1254T292 1326T402 1383T573 1407Q664 1407 734 1387T851 1328T923 1235T948
1112Z" />
<glyph unicode="@" glyph-name="at" horiz-adv-x="1917" d="M1217 805Q1220 818 1212 838T1187 876T1147 908T1096 922Q1020 922 959 887T855 790T789 646T766 469Q766 358 807 303T926 248Q960 248 991 261T1048 295T1097 338T1135 381L1217 805ZM1790 764Q1790
660 1767 572T1706 411T1616 284T1509 191T1396 134T1288 115Q1203 115 1166 157T1128 285Q1048 204 977 161T834 117Q778 117 731 140T650 207T597 312T578 451Q578 568 621 670T735 847T897 965T1085 1008Q1107 1008 1133 1004T1185 993T1238 975T1286 952L1323
999H1440Q1438 993 1431 964T1414 891T1391 793T1365 683Q1335 553 1298 391Q1290 356 1290 327T1299 276T1326 243T1374 231Q1404 231 1439 247T1510 296T1577 374T1635 479T1675 609T1690 762Q1690 858 1668 937T1605 1079T1511 1188T1392 1264T1257 1310T1114
1325Q997 1325 893 1298T700 1220T540 1097T419 936T342 744T315 526Q315 370 363 235T504 1T729 -154T1032 -211Q1122 -211 1200 -197T1346 -161T1471 -112T1575 -59L1604 -133Q1535 -170 1463 -202T1314 -259T1155 -298T983 -313Q873 -313 771 -288T578 -216T412
-99T284 60T200 257T170 489Q170 641 206 768T307 999T458 1180T648 1310T863 1388T1090 1415Q1242 1415 1370 1373T1592 1248T1737 1044T1790 764Z" />
<glyph unicode="A" glyph-name="A" horiz-adv-x="1378" d="M766 1155L463 623H854L766 1155ZM801 0V86L895 96Q940 102 934 135L872 526H408L199 135Q188 115 198 107T238 96L332 86V0H-109V86L6 98L762 1407H926L1147 135Q1150 115 1158 107T1188 96L1282 86V0H801Z" />
<glyph unicode="B" glyph-name="B" horiz-adv-x="1243" d="M1176 1112Q1176 1033 1149 972T1076 866T967 787T834 731Q901 722 956 704T1051 653T1113 574T1135 459Q1135 333 1089 246T962 104T770 25T530 0H-31V86L98 96Q117 98 125 107T137 135L350 1237Q353
1254 345 1265T309 1278L195 1288V1374H770Q881 1374 958 1356T1084 1303T1154 1220T1176 1112ZM911 438Q911 501 889 544T827 615T728 654T598 666Q560 666 519 663T444 655L336 98Q348 97 364 96T398 94T433 93T463 92Q683 92 797 183T911 438ZM948 1098Q948
1195 875 1240T670 1286Q638 1286 610 1284T565 1280L465 760Q477 759 490 758L517 757Q531 757 542 757T561 756Q657 756 729 783T850 857T923 966T948 1098Z" />
<glyph unicode="C" glyph-name="C" horiz-adv-x="1290" d="M1264 1006H1143V1196Q1143 1212 1132 1229T1106 1251Q1102 1253 1088 1261T1052 1279T999 1295T932 1303Q853 1303 777 1278T633 1206T506 1091T406 937T339 746T315 524Q315 408 348 323T439 182T572
99T735 72Q768 72 795 76T841 87T873 98T889 106Q901 108 915 120T936 147L1024 381H1145L1090 49Q1078 45 1039 32T942 5T813 -21T668 -33Q566 -33 484 -10T339 53T230 148T155 267T112 403T98 547Q98 656 125 762T203 963T327 1140T491 1281T691 1373T922 1407Q972
1407 1018 1402T1111 1386T1209 1360T1319 1325L1264 1006Z" />
<glyph unicode="D" glyph-name="D" horiz-adv-x="1374" d="M1116 868Q1116 996 1077 1074T972 1195T819 1253T637 1272H563L338 106H487Q642 108 760 172T957 343T1076 585T1116 868ZM1337 850Q1337 724 1308 612T1224 406T1091 236T914 109T699 28T451 0H-31V86L96
96Q116 98 124 107T137 135L350 1237Q353 1254 345 1265T309 1278L195 1288V1374H684Q824 1374 943 1347T1150 1258T1287 1096T1337 850Z" />
<glyph unicode="E" glyph-name="E" horiz-adv-x="1143" d="M1126 1067H995V1233Q995 1255 987 1263T956 1272H563L469 768H743Q765 768 776 776T795 807L834 944H948L858 475H741L762 621Q768 662 723 662H446L340 102H821Q843 102 854 113T872 143L936 340H1061L993
0H-31V86L88 96Q131 99 137 135L350 1237Q353 1254 345 1265T311 1278L197 1288V1374H1188L1126 1067Z" />
<glyph unicode="F" glyph-name="F" horiz-adv-x="1053" d="M1102 1044H971V1233Q971 1255 962 1263T930 1272H563L463 745H725Q747 745 758 754T774 784L813 924H930L840 457H723L743 600Q747 620 736 630T702 641H442L344 135Q341 120 349 109T383 96L516 86V0H-31V86L86
96Q128 99 137 135L350 1237Q353 1254 345 1265T309 1278L195 1288V1374H1165L1102 1044Z" />
<glyph unicode="G" glyph-name="G" horiz-adv-x="1409" d="M1266 567Q1246 565 1233 557T1214 528L1122 47Q1112 44 1087 38T1027 22T950 4T861 -14T769 -28T680 -33Q563 -33 475 -6T322 66T214 171T145 296T109 426T98 549Q98 680 133 794T229 1004T374 1174T556
1301T763 1380T981 1407Q1031 1407 1074 1403T1162 1391T1254 1369T1362 1337L1298 1008H1159L1165 1196Q1167 1219 1156 1233T1126 1253Q1122 1254 1109 1261T1075 1276T1023 1290T956 1296Q879 1296 803 1271T656 1199T525 1084T420 929T350 738T324 516Q324
433 343 369T394 255T467 172T552 117T640 86T721 76Q752 76 783 80T843 90T893 102T928 111L1008 528Q1011 545 1003 555T967 567L854 578V664H1382V578L1266 567Z" />
<glyph unicode="H" glyph-name="H" horiz-adv-x="1485" d="M1452 1278Q1433 1276 1421 1267T1403 1237L1190 135Q1187 120 1195 109T1231 96L1346 86V0H811V86L934 96Q952 98 966 107T983 135L1085 668H446L344 135Q341 120 349 109T383 96L502 86V0H-31V86L86
96Q128 99 137 135L350 1237Q353 1254 345 1265T309 1278L195 1288V1374H727V1288L606 1278Q588 1276 574 1267T557 1237L467 770H1106L1196 1237Q1199 1254 1191 1265T1155 1278L1038 1288V1374H1571V1288L1452 1278Z" />
<glyph unicode="I" glyph-name="I" horiz-adv-x="643" d="M598 1278Q578 1276 570 1267T557 1237L344 135Q341 120 349 109T385 96L504 86V0H-31V86L98 96Q117 98 125 107T137 135L350 1237Q353 1254 345 1265T311 1278L197 1288V1374H729V1288L598 1278Z" />
<glyph unicode="J" glyph-name="J" horiz-adv-x="958" d="M922 1278Q880 1275 870 1237L739 524Q716 397 683 294T593 119T449 7T229 -33Q169 -33 122 -25T42 -7T-12 14T-41 29L27 379H162V129Q162 103 187 89T244 74Q309 74 355 103T433 187T487 322T528 506L664
1237Q667 1254 659 1265T625 1278L506 1288V1374H1038V1288L922 1278Z" />
<glyph unicode="K" glyph-name="K" horiz-adv-x="1343" d="M1245 1272L709 754L993 203Q1012 165 1029 142T1066 105T1106 87T1155 82Q1174 82 1195 83T1241 86V0Q1193 -14 1141 -23T1049 -33Q1004 -33 971 -26T909 -2T858 45T811 119L559 604H434L342 135Q339
120 348 109T383 96L502 86V0H-33V86L86 96Q129 99 135 135L350 1237Q353 1254 345 1265T311 1278L197 1288V1374H729V1288L608 1278Q588 1276 575 1267T557 1237L453 700H487L1032 1237Q1045 1249 1043 1262T1018 1278L887 1288V1374H1417V1288L1245 1272Z" />
<glyph unicode="L" glyph-name="L" horiz-adv-x="1061" d="M915 0H-31V86L88 96Q131 99 137 135L350 1237Q353 1254 345 1265T311 1278L197 1288V1374H729V1288L608 1278Q585 1276 573 1264T557 1237L340 102H743Q763 102 775 113T795 143L868 379H989L915 0Z" />
<glyph unicode="M" glyph-name="M" horiz-adv-x="1765" d="M1733 1278Q1691 1275 1681 1237L1470 135Q1467 120 1475 109T1511 96L1626 86V0H1094V86L1214 96Q1233 98 1247 107T1264 135L1462 1174L805 0H682L477 1163L287 135Q284 120 292 109T326 96L440 86V0H-29V86L88
96Q130 99 139 135L350 1237Q353 1254 345 1265T309 1278L195 1288V1374H653V1317L829 326L1376 1307V1374H1849V1288L1733 1278Z" />
<glyph unicode="N" glyph-name="N" horiz-adv-x="1456" d="M1430 1278Q1410 1276 1397 1267T1378 1237L1137 0H989L473 1087L291 135Q288 120 296 109T332 96L446 86V0H-29V86L88 96Q130 99 139 135L350 1237Q353 1254 345 1265T311 1278L197 1288V1374H592V1321L1053
344L1227 1237Q1230 1254 1222 1265T1188 1278L1071 1288V1374H1546V1288L1430 1278Z" />
<glyph unicode="O" glyph-name="O" horiz-adv-x="1454" d="M1182 854Q1182 956 1157 1039T1086 1181T978 1273T842 1305Q767 1305 700 1272T576 1182T474 1049T396 885T347 705T330 520Q330 416 356 334T428 194T536 105T670 74Q745 74 812 107T936 199T1038 333T1116
497T1165 675T1182 854ZM1415 854Q1415 746 1392 639T1325 432T1216 249T1067 101T879 3T655 -33Q532 -33 430 7T254 123T139 303T98 537Q98 647 123 754T195 958T310 1137T462 1279T647 1373T860 1407Q987 1407 1090 1364T1265 1245T1376 1069T1415 854Z" />
<glyph unicode="P" glyph-name="P" horiz-adv-x="1159" d="M956 1012Q956 1071 940 1120T886 1204T788 1258T639 1278Q620 1278 599 1277T561 1274L434 623Q479 619 524 620T614 629T699 651T776 688Q815 711 848 742T905 813T942 902T956 1012ZM1169 1047Q1169
923 1122 824T992 656T794 549T545 512Q529 512 507 512T465 514Q441 515 416 516L340 135Q337 120 345 109T381 96L498 86V0H-35V86L84 96Q124 99 133 135L348 1237Q351 1254 343 1265T307 1278L193 1288V1374H702Q828 1374 916 1350T1061 1282T1143 1178T1169
1047Z" />
<glyph unicode="Q" glyph-name="Q" horiz-adv-x="1454" d="M1182 856Q1182 953 1158 1035T1091 1176T987 1269T852 1303Q776 1303 707 1272T580 1185T474 1055T393 893T342 711T324 520Q324 424 348 343T416 202T524 110T668 76Q741 76 807 109T931 199T1035 332T1114
495T1164 674T1182 856ZM1479 -227Q1467 -233 1432 -250T1348 -284T1243 -314T1133 -328Q1054 -328 995 -305T892 -241T814 -145T752 -25Q729 -27 702 -30T649 -33Q536 -33 435 4T259 114T139 291T94 530Q94 636 119 742T192 945T308 1127T461 1274T647 1371T862
1407Q987 1407 1089 1365T1263 1249T1374 1074T1413 856Q1413 801 1406 734T1381 595T1331 447T1249 300T1129 161T965 41Q996 -16 1024 -62T1084 -141T1154 -191T1243 -209Q1273 -209 1304 -203T1367 -186T1426 -164T1479 -141V-227Z" />
<glyph unicode="R" glyph-name="R" horiz-adv-x="1313" d="M958 1042Q958 1117 926 1163T842 1234T729 1266T608 1272Q600 1272 586 1271T563 1270L459 711H504Q587 711 668 726T813 779T918 880T958 1042ZM1260 0Q1218 -19 1182 -26T1110 -33Q1017 -33 961 -3T872
75T824 181T797 297Q785 354 771 409T730 508T659 579T543 606Q529 606 511 606T476 605Q457 604 436 604L348 135Q345 120 353 109T387 96L506 86V0H-27V86L90 96Q132 99 141 135L350 1237Q353 1254 345 1265T311 1278L197 1288V1374H745Q830 1374 910 1360T1053
1311T1152 1218T1190 1071Q1190 988 1157 921T1067 802T934 711T772 649Q835 622 872 589T933 514T969 423T997 315Q1012 258 1030 215T1077 142T1150 99T1260 84V0Z" />
<glyph unicode="S" glyph-name="S" horiz-adv-x="1067" d="M985 1020H864L872 1227Q872 1237 857 1250T817 1276T758 1298T688 1307Q629 1307 574 1286T475 1228T407 1139T381 1026Q381 971 411 930T485 856T579 800T670 756Q724 728 775 697T867 627T931 538T956
420Q956 346 926 266T827 120T651 10T385 -33Q306 -33 239 -19T120 14T35 50T-10 74L59 403H199L176 168Q175 156 190 144T229 122T282 103T337 88T384 78T412 74Q478 74 538 94T643 153T716 247T743 373Q743 425 713 465T638 538T543 594T455 639Q401 667 350
697T260 765T196 850T172 958Q172 1060 212 1143T323 1284T492 1375T705 1407Q774 1407 833 1398T937 1375T1011 1350T1051 1333L985 1020Z" />
<glyph unicode="T" glyph-name="T" horiz-adv-x="1200" d="M1266 1061H1137L1145 1241Q1148 1282 1106 1282H842L629 135Q626 120 634 109T670 96L786 86V0H254V86L373 96Q391 98 405 107T422 135L635 1282H379Q340 1282 328 1241L264 1061H135L195 1374H1329L1266 1061Z" />
<glyph unicode="U" glyph-name="U" horiz-adv-x="1448" d="M1415 1278Q1397 1276 1383 1267T1366 1237L1208 438Q1187 327 1141 240T1024 92T856 -1T637 -33Q542 -33 461 -14T318 49T223 160T188 326Q188 357 194 413T215 541L358 1237Q361 1254 353 1265T317
1278L203 1288V1374H735V1288L614 1278Q596 1276 582 1267T565 1237L424 541Q412 481 407 434T401 358Q401 293 421 245T479 165T570 116T690 100Q790 100 857 133T970 223T1041 353T1083 510L1227 1237Q1230 1254 1222 1265T1186 1278L1071 1288V1374H1534V1288L1415
1278Z" />
<glyph unicode="V" glyph-name="V" horiz-adv-x="1317" d="M1358 1276L651 -33H496L297 1243Q294 1263 281 1272T248 1284L170 1288V1374H635V1288L547 1284Q524 1282 514 1274T506 1243L659 252L1180 1243Q1188 1259 1183 1270T1149 1284L1049 1288V1374H1466V1288L1358
1276Z" />
<glyph unicode="W" glyph-name="W" horiz-adv-x="1898" d="M1927 1276L1313 -33H1182L1063 1061L551 -33H408L305 1243Q303 1263 293 1272T256 1284L170 1288V1374H643V1288L553 1284Q530 1282 521 1272T512 1243L584 354L1065 1374H1231L1335 340L1751 1243Q1769
1281 1712 1284L1620 1288V1374H2048V1288L1927 1276Z" />
<glyph unicode="X" glyph-name="X" horiz-adv-x="1296" d="M1266 1280Q1250 1278 1237 1268T1217 1249L766 737L1034 125Q1044 106 1054 101T1075 94L1186 86V0H657V86L788 94Q805 96 815 108T817 135L633 565L246 135Q233 123 235 110T264 94L387 86V0H-90V86L8
94Q25 96 38 106T57 125L567 696L322 1249Q314 1268 304 1273T283 1280L170 1288V1374H702V1288L569 1280Q552 1278 542 1267T539 1239L707 856L1042 1239Q1053 1251 1052 1264T1024 1280L926 1288V1374H1389V1288L1266 1280Z" />
<glyph unicode="Y" glyph-name="Y" horiz-adv-x="1309" d="M1341 1280Q1326 1278 1311 1268T1288 1249L768 575L682 135Q677 120 686 109T721 96L836 86V0H303V86L422 96Q440 98 453 107T471 135L555 557L326 1249Q319 1269 309 1273T287 1280L172 1288V1374H702V1288L571
1280Q554 1278 546 1267T543 1239L711 707L1106 1239Q1110 1246 1113 1253T1115 1265T1109 1275T1090 1280L963 1288V1374H1456V1288L1341 1280Z" />
<glyph unicode="Z" glyph-name="Z" horiz-adv-x="1153" d="M1200 1282L236 109H793Q833 109 844 150L905 379H1044L973 0H-41L-23 90L938 1268H459Q437 1268 427 1259T410 1229L354 1049H213L279 1374H1219L1200 1282Z" />
<glyph unicode="[" glyph-name="bracketleft" horiz-adv-x="862" d="M631 1354L326 -174H639V-270H111L455 1450H965V1354H631Z" />
<glyph unicode="\" glyph-name="backslash" horiz-adv-x="1001" d="M870 -190L0 1374H131L1001 -190H870Z" />
<glyph unicode="]" glyph-name="bracketright" horiz-adv-x="862" d="M426 -270H-84V-172H252L555 1356H242V1450H770L426 -270Z" />
<glyph unicode="^" glyph-name="asciicircum" horiz-adv-x="702" d="M676 1128L508 1317L262 1128H119L457 1475H618L819 1128H676Z" />
<glyph unicode="_" glyph-name="underscore" horiz-adv-x="622" d="M462 -315H-160L-131 -180H488L462 -315Z" />
<glyph unicode="`" glyph-name="grave" horiz-adv-x="805" d="M526 1128L229 1323Q208 1337 195 1357T182 1409Q182 1424 186 1440T201 1469T229 1490T274 1499Q296 1499 311 1495T339 1485T360 1469T379 1448L653 1128H526Z" />
<glyph unicode="a" glyph-name="a" horiz-adv-x="1067" d="M760 803Q761 808 753 826T732 863T707 898T684 913Q606 913 545 888T437 819T359 718T306 599T277 474T268 354Q268 311 275 268T299 190T347 133T426 111Q462 111 498 127T565 164T619 206T653 238L760
803ZM1061 55Q1049 50 1017 37T946 10T866 -14T795 -25Q758 -25 733 -16T691 11T665 55T653 115Q630 93 599 69T531 23T451 -11T362 -25Q302 -25 257 -8T178 37T124 103T89 181T71 263T66 342Q66 421 83 501T133 656T217 796T332 909T478 984T655 1012Q683 1012
710 1006T762 989T806 965T840 938L870 987H1010Q1005 975 999 959T987 925T977 893T971 870Q964 843 951 789T924 666T894 524T866 383T846 265T838 190Q838 136 861 116T926 96Q936 96 955 100T996 111T1035 122T1061 129V55Z" />
<glyph unicode="b" glyph-name="b" horiz-adv-x="1008" d="M739 627Q739 696 723 743T684 821T636 864T592 877Q567 877 537 869T476 847T413 813T356 772L242 152Q252 137 269 123T308 98T356 79T410 72Q457 72 499 96T578 161T645 257T695 373T727 500T739 627ZM942
635Q942 571 928 498T885 351T809 210T699 90T552 7T365 -25Q278 -25 194 -1T37 70L279 1368L96 1386V1448L416 1509H496L379 889Q407 914 440 936T510 975T584 1002T659 1012Q738 1012 792 977T879 887T927 766T942 635Z" />
<glyph unicode="c" glyph-name="c" horiz-adv-x="891" d="M825 868Q825 848 819 827T796 788T748 756T668 735L551 893Q496 890 453 863T378 792T323 695T286 584T266 475T260 381Q260 331 269 283T300 196T356 133T442 109Q483 109 525 123T609 164T695 226T782
305V176Q750 145 709 110T618 45T509 -5T381 -25Q308 -25 250 0T151 74T88 194T66 356Q66 448 87 532T147 689T237 821T350 923T479 989T616 1012Q671 1012 711 998T776 963T813 917T825 868Z" />
<glyph unicode="d" glyph-name="d" horiz-adv-x="1077" d="M850 176Q845 147 853 129T874 101T902 86T924 82Q931 82 952 87T998 100T1043 113L1071 121V45Q1059 40 1027 29T956 5T876 -16T803 -25Q756 -25 726 -14T679 18T656 67T649 129Q622 100 590 73T520
24T442 -11T358 -25Q272 -25 216 8T126 94T80 212T66 342Q66 423 83 504T135 660T220 799T334 910T476 985T645 1012Q668 1012 690 1008T732 997T769 984T799 973L868 1368L682 1386V1448L999 1509H1083L850 176ZM770 807Q771 811 759 829T727 868T684 904T641
920Q566 920 498 877T378 757T295 578T264 354Q264 288 277 240T313 161T365 115T424 100Q452 100 484 114T550 151T615 205T676 268L770 807Z" />
<glyph unicode="e" glyph-name="e" horiz-adv-x="889" d="M672 807Q672 827 664 846T642 881T607 905T561 915Q527 915 496 897T437 849T384 780T340 698T305 611T281 528Q346 534 415 558T542 619T635 705T672 807ZM854 805Q854 749 828 702T758 617T655 550T532
500T400 467T272 451Q269 431 267 403T264 356Q264 300 277 253T316 172T378 118T459 98Q528 98 611 148T807 297V168Q778 140 736 107T641 44T524 -5T391 -25Q360 -25 324 -19T251 2T182 45T123 113T82 212T66 348Q66 429 85 509T140 663T226 800T336 910T464
983T606 1010Q677 1010 724 987T801 930T842 862T854 805Z" />
<glyph unicode="f" glyph-name="f" horiz-adv-x="659" d="M903 1382Q903 1333 867 1307T774 1272L614 1401Q592 1383 573 1349T538 1272T509 1181T485 1087T468 1002T457 936H707V834H438Q435 811 428 754T409 622T386 462T361 297T336 150T315 45Q301 -12 277
-72T219 -190T145 -298T59 -387T-36 -447T-137 -469Q-176 -469 -201 -456T-241 -426T-260 -392T-266 -367Q-266 -328 -251 -307T-213 -268L-4 -322Q23 -289 45 -241T86 -135T120 -11T147 127Q173 272 195 450T248 831L90 815L92 895L270 954Q280 1008 297 1070T341
1194T402 1313T484 1413T587 1483T715 1509Q767 1509 803 1496T861 1464T893 1422T903 1382Z" />
<glyph unicode="g" glyph-name="g" horiz-adv-x="901" d="M657 -180Q657 -143 635 -112T553 -53L297 63Q248 51 216 30T164 -17T137 -74T129 -135Q129 -170 144 -212T190 -290T270 -350T383 -375Q457 -375 509 -354T594 -303T642 -240T657 -180ZM635 735Q635 773
628 807T607 868T570 910T516 926Q479 926 440 899T369 825T316 715T295 580Q295 543 303 512T326 458T363 423T412 410Q463 410 504 442T575 524T619 630T635 735ZM805 862Q814 839 822 803T831 725Q831 627 795 554T698 432T557 359T387 334Q380 319 375 301T367
266T363 234T365 211L639 86Q686 65 724 44T790 -3T833 -61T848 -139Q848 -183 828 -224T772 -302T687 -370T580 -423T459 -457T330 -469Q229 -469 155 -444T33 -378T-39 -283T-63 -170Q-63 -118 -42 -74T17 5T103 67T209 113Q204 137 208 169T223 235T251 300T289
352Q248 370 213 393T153 447T113 517T98 606Q98 681 126 753T207 883T337 976T512 1012Q549 1012 581 1006T640 991T686 973T715 958H993V862H805Z" />
<glyph unicode="h" glyph-name="h" horiz-adv-x="1073" d="M1069 51Q1056 46 1024 34T951 9T869 -15T795 -25Q776 -25 747 -20T693 0T652 41T645 109L770 713Q779 753 769 784T739 835T697 866T657 877Q633 877 599 865T526 832T448 782T375 717L225 0H37L319
1368L137 1386V1448L457 1509H539L401 848Q432 882 474 912T565 964T666 999T770 1012Q826 1012 869 995T938 943T972 856T965 735L852 184Q846 155 855 136T879 105T912 89T938 84Q966 84 999 98T1067 123L1069 51Z" />
<glyph unicode="i" glyph-name="i" horiz-adv-x="545" d="M539 59Q527 54 495 40T420 12T330 -14T240 -25Q187 -25 156 -7T110 40T93 105T98 176L229 870L53 889V948L362 1012H446L291 193Q287 172 291 153T306 120T333 97T371 88Q389 88 413 94T462 109T508 126T539
137V59ZM530 1313Q530 1290 522 1270T498 1233T459 1208T406 1198Q343 1198 311 1231T279 1313Q279 1333 287 1353T312 1389T353 1416T408 1427Q437 1427 459 1417T498 1391T522 1355T530 1313Z" />
<glyph unicode="j" glyph-name="j" horiz-adv-x="559" d="M328 164Q319 113 301 46T256 -91T191 -229T105 -350T-1 -436T-127 -469Q-192 -469 -228 -438T-264 -360Q-264 -341 -258 -326T-243 -300T-225 -281T-207 -268L-2 -324Q13 -308 28 -275T59 -201T86 -113T106
-25L260 870L88 889V948L397 1012H473L328 164ZM545 1313Q545 1295 536 1275T510 1237T470 1209T418 1198Q362 1198 327 1230T291 1313Q291 1336 298 1357T322 1394T362 1420T418 1430Q449 1430 472 1421T512 1395T536 1357T545 1313Z" />
<glyph unicode="k" glyph-name="k" horiz-adv-x="1042" d="M1018 47Q992 34 959 21T890 -2T822 -18T764 -25Q739 -25 715 -17T670 5T630 36T600 72Q586 93 569 126T532 200T492 283T454 367T420 443T393 500L299 416L215 0H27L299 1368L119 1386V1448L436 1509H518L328
557L659 899Q688 929 712 950T758 985T804 1005T854 1012Q888 1012 913 1002T955 976T980 940T987 901Q987 866 955 829T850 766L780 840Q752 818 720 791T654 736T591 681T537 633Q550 607 565 568T598 485T636 394T680 305Q703 262 728 223T781 153T836 104T891
86Q902 86 918 88T952 95T987 105T1018 117V47Z" />
<glyph unicode="l" glyph-name="l" horiz-adv-x="543" d="M539 53Q527 48 494 36T420 10T335 -14T254 -25Q207 -25 174 -14T120 17T90 64T80 125Q80 156 86 197L311 1368L129 1386V1448L449 1509H528L279 203Q275 182 281 162T300 126T332 100T373 90Q388 90 412
95T462 108T508 122T539 131V53Z" />
<glyph unicode="m" glyph-name="m" horiz-adv-x="1589" d="M1583 53Q1557 42 1525 29T1458 3T1389 -17T1325 -25Q1283 -25 1250 -16T1194 12T1162 57T1159 119L1272 666Q1282 717 1279 755T1264 818T1233 855T1194 868Q1147 868 1103 847T1021 798T957 740T920
692L776 0H586L723 668Q730 701 730 736T720 801T690 849T637 868Q601 868 561 847T483 797T415 738T369 688L225 0H37L213 870L43 889V948L350 1012H434L395 823Q433 859 476 893T565 954T658 996T750 1012Q801 1012 834 993T888 946T918 884T932 823Q969 860
1014 894T1108 954T1207 996T1305 1012Q1356 1012 1394 994T1456 941T1486 859T1481 752L1366 199Q1361 174 1367 154T1385 118T1416 95T1454 86Q1479 86 1512 98T1583 123V53Z" />
<glyph unicode="n" glyph-name="n" horiz-adv-x="1085" d="M1079 41Q1066 36 1034 26T961 4T879 -16T805 -25Q787 -25 756 -22T695 -6T648 31T639 96L764 725Q771 766 765 793T744 836T710 859T674 866Q649 866 613 852T536 813T454 757T379 688L238 0H47L225
870L53 889V948L362 1012H444L406 821Q440 855 484 889T578 951T681 995T786 1012Q898 1012 945 950T969 750L860 172Q855 143 864 126T889 100T922 89T948 86Q976 86 1009 94T1077 113L1079 41Z" />
<glyph unicode="o" glyph-name="o" horiz-adv-x="1036" d="M766 623Q766 696 752 752T714 846T657 904T584 924Q517 924 460 876T360 749T294 572T270 373Q270 297 284 240T323 145T381 87T453 68Q501 68 543 92T620 158T682 255T728 371T756 498T766 623ZM973
614Q973 531 955 452T902 301T819 171T710 68T578 0T428 -25Q344 -25 276 2T161 79T89 201T63 362Q63 445 81 525T132 678T214 811T322 917T454 987T606 1012Q680 1012 746 989T863 917T943 793T973 614Z" />
<glyph unicode="p" glyph-name="p" horiz-adv-x="1012" d="M743 625Q743 670 734 716T705 801T655 863T584 887Q547 887 510 871T443 834T390 794T360 768L238 133Q247 128 263 118T302 97T349 80T401 72Q457 72 504 97T589 164T656 263T704 380T733 505T743 625ZM946
633Q946 549 926 468T869 313T778 178T660 71T519 1T360 -25Q314 -25 277 -12T215 12L150 -317Q146 -334 154 -344T190 -358L319 -369V-446H-197V-369L-90 -358Q-47 -355 -41 -317L190 870L18 889V948L328 1012H408L383 885Q409 902 442 924T514 965T593 998T678
1012Q756 1012 807 979T889 891T933 769T946 633Z" />
<glyph unicode="q" glyph-name="q" horiz-adv-x="1069" d="M772 795Q774 806 763 826T734 867T698 903T668 918Q584 918 511 875T382 756T296 577T264 354Q264 296 275 249T308 169T361 118T430 100Q461 100 491 111T550 142T607 184T662 231L772 795ZM743 -317Q740
-334 748 -344T784 -358L911 -369V-446H395V-369L504 -358Q524 -356 537 -347T555 -317L639 109Q568 50 494 13T348 -25Q286 -25 235 -2T146 69T87 185T66 346Q66 425 85 505T139 659T225 797T340 909T480 984T641 1012Q706 1012 756 993T834 952L883 1012H1006L743
-317Z" />
<glyph unicode="r" glyph-name="r" horiz-adv-x="766" d="M838 874Q838 838 825 817T788 784T731 770T655 766L606 864Q568 848 525 809T442 719T374 615T336 516L229 0H39L215 870L43 889V948L352 1012H434L391 805Q454 902 534 957T707 1012Q744 1012 769 999T809
964T831 919T838 874Z" />
<glyph unicode="s" glyph-name="s" horiz-adv-x="758" d="M715 883Q715 847 699 826T660 792T612 776T567 770L475 895Q469 900 456 905T424 911Q390 911 367 897T330 861T309 815T303 770Q303 742 319 714T361 657T419 601T485 547Q519 520 550 492T607 433T647
368T662 297Q662 234 637 176T562 73T439 2T270 -25Q196 -25 142 -9T53 34T1 95T-16 164Q-16 213 13 243T106 274Q125 274 142 269T173 258T197 244T213 231L174 131Q196 100 228 79T313 57Q344 57 373 69T424 103T460 156T473 227Q473 258 461 285T426 339T373
390T305 444Q273 469 244 498T191 559T153 628T139 702Q139 777 173 835T260 932T379 992T508 1012Q566 1012 605 999T669 966T704 924T715 883Z" />
<glyph unicode="t" glyph-name="t" horiz-adv-x="614" d="M414 858L285 215Q279 188 287 167T312 131T353 108T403 100Q432 100 463 105T522 119T575 135T616 150V68Q603 62 566 47T481 16T380 -12T283 -25Q227 -25 190 -12T131 25T100 81T90 152Q90 172 91 193T98
236L223 858L94 846V913L248 981L348 1186H473L432 952H715V858H414Z" />
<glyph unicode="u" glyph-name="u" horiz-adv-x="1079" d="M1073 49Q1054 38 1021 25T948 1T869 -17T795 -25Q737 -25 709 -6T671 39T661 91T662 129Q581 52 493 14T301 -25Q230 -25 185 0T117 63T89 146T92 231L225 870L53 889V948L362 1012H446L283 231Q277
205 285 182T310 141T348 113T389 102Q426 102 463 112T538 141T609 182T672 233L827 987H1018L854 199Q847 167 854 146T875 110T908 90T944 84Q964 84 997 90T1073 121V49Z" />
<glyph unicode="v" glyph-name="v" horiz-adv-x="946" d="M956 889Q956 863 951 840T940 797T926 761T913 735Q845 609 767 494T614 282T472 106T358 -25H240Q261 20 272 58T281 131Q281 134 279 161T274 232T265 332T254 448T242 568T228 681T213 774T197 836Q187
857 177 867T150 877L4 885V944L223 1012Q307 1010 345 975T391 866L455 236Q507 304 551 365T631 485T698 600T752 719L713 967Q733 987 763 999T831 1012Q897 1012 926 979T956 889Z" />
<glyph unicode="w" glyph-name="w" horiz-adv-x="1438" d="M1446 891Q1446 848 1424 788T1366 659T1283 514T1187 366T1089 227T1000 107T933 19T897 -25H770L725 674Q680 577 631 481T533 294T437 123T346 -25H195L215 23L158 868L4 885V942L252 1012L344 1006L389
240Q429 313 473 401T562 582T651 772T735 961L889 979L940 199Q1035 321 1107 450T1241 721L1200 961Q1204 965 1213 973T1239 990T1276 1005T1323 1012Q1360 1012 1383 998T1421 964T1440 924T1446 891Z" />
<glyph unicode="x" glyph-name="x" horiz-adv-x="1081" d="M1104 891Q1104 851 1078 815T991 758L901 838Q874 827 841 799T774 726T705 622T641 492Q647 473 655 445T675 383T698 314T725 246Q740 213 756 184T791 133T827 99T864 86Q887 86 913 90T981 115V41Q922
10 865 -7T741 -25Q707 -25 678 -7T625 42T580 111T543 193T515 277T494 354Q465 300 428 235T342 111T236 14T106 -25Q43 -25 3 4T-37 88Q-37 138 -5 168T90 209L176 127Q207 146 241 179T311 258T380 365T442 498Q437 518 426 553T400 627T367 708T334 782T305
837T285 860L106 883V938Q115 941 135 947T180 962T233 979T285 995T327 1007T352 1012Q388 1012 420 986T480 910T534 788T584 623Q614 681 655 749T747 875T855 973T979 1012Q1035 1012 1069 979T1104 891Z" />
<glyph unicode="y" glyph-name="y" horiz-adv-x="1018" d="M971 846Q959 834 936 802T889 730T841 648T803 573Q781 524 752 454T686 304T606 137T514 -33Q466 -114 412 -192T296 -332T168 -431T27 -469Q-29 -469 -66 -455T-125 -421T-155 -377T-164 -334Q-164
-311 -154 -290T-124 -252T-79 -225T-23 -213L96 -332Q128 -329 159 -307T224 -239T300 -126T393 37Q391 49 383 90T364 191T338 323T307 469Q291 541 274 613T240 744T210 839T190 877L4 891V942L32 951Q52 958 76 965T127 981T178 996T221 1007T250 1012Q283
1012 308 997T352 952T388 883T420 791Q446 700 474 566T532 266L844 1012H903L1073 956V909L971 846Z" />
<glyph unicode="z" glyph-name="z" horiz-adv-x="911" d="M227 145L399 190Q420 182 447 171T502 148T558 129T606 121Q628 121 644 127T673 144T696 165T715 188L602 313Q612 331 626 345T655 370T687 385T717 391Q745 391 766 380T803 350T826 309T834 264Q834
202 807 149T736 58T640 -3T537 -25Q490 -25 448 -12T366 18T288 49T213 63Q205 63 190 60T160 43L109 -53L-33 23L662 836L481 797Q439 820 394 838T307 856Q294 856 278 852T247 841T219 822T197 797L305 666Q301 660 291 649T267 626T233 606T193 598Q164 598
143 609T107 639T87 678T80 719Q80 766 99 817T156 912T247 984T369 1012Q415 1012 457 996T538 961T610 925T676 909Q682 909 693 911T723 924L768 1038L922 958L227 145Z" />
<glyph unicode="{" glyph-name="braceleft" horiz-adv-x="995" d="M1032 1354Q949 1354 895 1334T807 1282Q772 1249 753 1204T721 1108T701 1002T679 894T645 793T584 705Q550 673 499 645T369 596Q415 580 449 563T508 522Q540 492 553 453T568 370T562 278T544
183T525 89T514 3T520 -70T555 -125Q571 -139 592 -147T636 -159T685 -165T735 -166L719 -252Q663 -252 611 -250T515 -238T434 -213T371 -168Q342 -137 331 -96T320 -9T329 86T348 186T368 283T379 373T372 450T336 508Q318 525 293 533T240 544T180 547H119L137
641Q179 641 216 642T286 649T345 667T395 702Q433 738 453 791T486 906T510 1032T539 1160T590 1275T678 1366Q741 1409 831 1424T1047 1440L1032 1354Z" />
<glyph unicode="|" glyph-name="bar" horiz-adv-x="724" d="M300 -528V1630H424V-528H300Z" />
<glyph unicode="}" glyph-name="braceright" horiz-adv-x="995" d="M879 547Q837 547 800 546T730 538T670 520T621 485Q583 449 563 396T530 282T507 155T478 28T427 -87T340 -178Q275 -222 185 -237T-31 -252L-16 -166Q67 -166 121 -146T211 -94Q246 -61 265
-16T295 80T315 187T336 295T371 396T432 483Q466 517 517 544T647 594Q555 621 510 666Q467 706 456 761T451 879T472 1006T497 1129T502 1236T463 1313Q446 1327 425 1335T380 1347T331 1353T281 1354L299 1440Q354 1440 405 1438T500 1426T582 1401T645 1356Q683
1314 691 1257T691 1134T667 1002T643 874T639 762T680 680Q698 663 723 655T776 644T836 641H897L879 547Z" />
<glyph unicode="~" glyph-name="asciitilde" horiz-adv-x="1706" d="M1544 627Q1485 586 1434 559T1337 514T1247 490T1159 483Q1086 483 1014 504T869 552T721 599T567 621Q489 621 393 579T193 461V594Q302 672 400 705T582 739Q656 739 731 718T879 671T1023
624T1161 602Q1198 602 1239 610T1328 636T1428 685T1544 760V627Z" />
<glyph unicode="&#xa0;" glyph-name="uni00A0" horiz-adv-x="600" />
<glyph unicode="&#xa1;" glyph-name="exclamdown" horiz-adv-x="692" d="M412 141Q406 98 393 68T358 19T310 -9T252 -18Q193 -18 168 10T143 84Q143 93 153 138T181 252T220 405T265 577Q319 781 387 1034H518L412 141ZM618 1284Q618 1257 608 1234T581 1194T540
1167T487 1157Q460 1157 436 1166T393 1192T363 1229T352 1276Q352 1302 362 1324T390 1363T432 1389T487 1399Q509 1399 532 1392T575 1370T606 1334T618 1284Z" />
<glyph unicode="&#xa2;" glyph-name="cent" horiz-adv-x="1139" d="M1020 651H897Q898 659 899 678T902 721T902 772T897 821T883 860T860 881Q854 884 828 896T756 913L596 76Q641 81 672 88T709 98Q727 102 741 119T766 160T784 212T797 265T805 310L809 338H932L889
37Q858 19 825 8T754 -11T673 -22T578 -25L539 -225H412L453 -18Q367 -5 303 31T197 117T134 228T113 352Q113 425 128 498T174 640T250 770T354 880T487 962T647 1008L688 1212H813L774 1012Q824 1011 863 1007T935 996T999 979T1063 956L1020 651ZM627 895Q560
869 504 819T406 701T342 551T319 379Q319 263 360 192T475 90L627 895Z" />
<glyph unicode="&#xa3;" glyph-name="sterling" horiz-adv-x="1139" d="M1190 1257Q1190 1218 1167 1192T1112 1148T1047 1122T991 1110L903 1296Q835 1292 785 1263T699 1187T638 1081T598 960T571 836T551 723H924V618H526Q513 546 493 483T441 362T360 254T244
156Q287 161 322 163T383 166H983V0H-8V123Q89 141 147 190T240 307Q260 346 273 385T295 463T311 541T326 618H180V723H340Q343 758 353 822T386 962T450 1117T552 1260T703 1366T913 1407Q951 1407 999 1400T1089 1376T1161 1330T1190 1257Z" />
<glyph unicode="&#xa4;" glyph-name="currency" horiz-adv-x="1249" d="M950 877Q950 941 926 998T859 1098T760 1166T639 1192Q572 1192 514 1168T413 1100T344 999T319 874Q319 808 344 751T412 651T514 584T639 559Q704 559 761 584T860 653T926 754T950 877ZM1114
328L903 539Q847 491 779 467T639 442Q562 442 493 465T367 539L156 328L82 401L293 612Q248 668 226 735T203 874Q203 910 208 946T225 1018T254 1085T297 1145L82 1360L156 1434L371 1219Q426 1264 496 1286T639 1309Q710 1309 777 1286T897 1217L1114 1434L1188
1360L975 1147Q1018 1093 1042 1021T1067 877Q1067 804 1045 736T977 612L1188 401L1114 328Z" />
<glyph unicode="&#xa5;" glyph-name="yen" horiz-adv-x="1139" d="M1184 1245L893 864H1128V772H811L662 573H1069V479H645L582 137Q581 132 581 127T583 116T591 106T608 100L745 90V0H190V90Q219 92 251 92T309 94Q321 95 333 98T357 105T375 117T385 137L449
479H57V573H465L399 772H117V864H360L238 1249L127 1274V1360H602V1270L483 1260Q469 1258 464 1248T463 1223L623 721L1001 1212Q1005 1218 1008 1224T1012 1235T1006 1244T989 1251L899 1272V1360H1309V1272L1184 1245Z" />
<glyph unicode="&#xa6;" glyph-name="brokenbar" horiz-adv-x="707" d="M301 -406V414H406V-406H301ZM301 688V1507H406V688H301Z" />
<glyph unicode="&#xa7;" glyph-name="section" horiz-adv-x="1024" d="M741 625Q741 658 731 688T695 746T627 801T522 858Q465 837 425 805T360 735T324 661T313 592Q313 555 322 525T356 467T424 409T535 344Q579 369 617 400T682 467T725 543T741 625ZM969
1151H846L854 1319Q811 1347 769 1359T686 1372Q655 1372 617 1361T544 1326T487 1269T463 1188Q463 1154 480 1128T525 1079T591 1036T669 994T751 949T829 895Q877 855 907 803T938 680Q938 617 912 559T841 452T740 363T621 297Q695 255 740 203T786 78Q786
-8 747 -75T643 -190T496 -262T326 -287Q161 -287 25 -219L72 47H203L197 -135Q239 -163 282 -174T362 -186Q395 -186 436 -174T512 -138T572 -79T596 4Q596 39 576 69T524 125T450 176T368 222T290 265T227 307Q179 347 149 398T119 524Q119 593 141 650T204 754T301
839T424 905Q389 927 360 950T311 1000T279 1056T268 1122Q268 1213 308 1279T415 1387T567 1450T741 1470Q773 1470 810 1467T883 1458T955 1442T1020 1419L969 1151Z" />
<glyph unicode="&#xa8;" glyph-name="dieresis" horiz-adv-x="649" d="M381 1313Q381 1290 372 1269T348 1232T312 1207T268 1198Q246 1198 226 1207T191 1232T167 1268T158 1311Q158 1333 167 1353T191 1390T226 1415T268 1425Q291 1425 311 1416T347 1392T372
1357T381 1313ZM805 1313Q805 1290 797 1269T773 1232T738 1207T694 1198Q671 1198 651 1207T615 1232T591 1269T582 1313Q582 1334 591 1354T616 1390T652 1415T694 1425Q717 1425 737 1416T773 1392T796 1357T805 1313Z" />
<glyph unicode="&#xa9;" glyph-name="copyright" horiz-adv-x="1714" d="M1221 283Q1218 282 1194 274T1130 257T1039 241T930 233Q809 233 716 272T558 378T461 532T428 717Q428 823 464 911T566 1063T725 1162T932 1198Q1012 1198 1082 1183T1221 1147V903H1128L1098
1059Q1075 1074 1036 1088T952 1102Q887 1102 826 1077T719 1002T644 883T616 721Q616 627 643 554T714 431T815 354T932 328Q957 328 982 331T1029 341T1070 354T1102 367L1130 541H1221V283ZM1597 717Q1597 814 1572 904T1502 1072T1394 1215T1252 1326T1085
1397T899 1423Q802 1423 713 1398T546 1326T404 1216T295 1073T224 904T199 717Q199 620 224 531T294 363T403 220T544 109T711 38T897 12Q993 12 1082 37T1249 109T1391 219T1501 362T1572 530T1597 717ZM1686 719Q1686 610 1658 509T1579 320T1455 159T1296 35T1107
-45T897 -74Q789 -74 689 -46T502 34T342 158T219 319T139 508T111 717Q111 826 139 927T218 1116T341 1276T500 1400T689 1480T899 1509Q1009 1509 1110 1480T1298 1399T1457 1275T1580 1114T1658 926T1686 719Z" />
<glyph unicode="&#xaa;" glyph-name="ordfeminine" horiz-adv-x="692" d="M610 1266Q611 1269 606 1279T593 1301T576 1322T561 1331Q484 1331 433 1298T350 1215T305 1107T291 997Q291 971 295 945T310 898T341 864T393 850Q417 850 440 859T483 882T518 908T541
928L610 1266ZM700 627H86L102 700H715L700 627ZM807 817Q798 814 777 807T731 791T679 776T633 770Q583 770 564 791T541 854Q526 840 506 825T461 798T408 778T350 770Q292 770 255 792T196 846T166 917T158 989Q158 1061 183 1132T256 1261T377 1355T543 1391Q580
1391 611 1377T662 1348L682 1376H772Q769 1369 765 1359T758 1339T751 1320T745 1307Q741 1290 733 1258T716 1184T696 1098T678 1013T665 942T659 897Q659 866 675 854T719 842Q726 842 738 844T764 850T790 856T807 860V817Z" />
<glyph unicode="&#xab;" glyph-name="guillemotleft" horiz-adv-x="905" d="M449 707L170 494L365 274L334 115L25 412L53 571L479 868L449 707ZM854 707L573 494L768 274L737 115L428 412L459 571L885 868L854 707Z" />
<glyph unicode="&#xac;" glyph-name="logicalnot" horiz-adv-x="1270" d="M1065 387V737H82V860H1188V387H1065Z" />
<glyph unicode="&#xad;" glyph-name="uni00AD" horiz-adv-x="653" d="M553 424H61L88 563H580L553 424Z" />
<glyph unicode="&#xae;" glyph-name="registered" horiz-adv-x="1714" d="M1063 944Q1063 986 1049 1019T1004 1076T925 1112T807 1124H737V756Q738 756 747 756T768 755T792 755T813 754Q874 754 920 763T998 795T1046 854T1063 944ZM1407 291Q1402 290 1389
289T1359 286T1323 283T1288 281Q1220 281 1178 298T1110 345T1070 410T1045 485T1020 560T981 626T914 672T805 690Q782 690 761 689T737 688V383Q737 374 744 365T768 354L846 348V291H483V348L561 354Q577 356 584 365T592 383V1096Q592 1105 585 1113T561 1124L483
1130V1188H864Q948 1188 1014 1176T1127 1135T1198 1062T1223 950Q1223 898 1203 861T1150 797T1074 754T983 727Q1044 713 1079 690T1135 637T1164 575T1181 510T1200 448T1234 396T1298 360T1407 346V291ZM1597 717Q1597 815 1572 905T1502 1073T1393 1216T1252
1327T1085 1398T899 1423Q803 1423 714 1398T548 1328T406 1218T296 1075T225 905T199 713Q199 617 224 528T294 361T402 219T544 109T711 38T897 12Q994 12 1083 37T1250 109T1392 220T1501 363T1572 531T1597 717ZM1686 717Q1686 608 1658 507T1579 318T1455
158T1295 35T1106 -45T895 -74Q787 -74 688 -46T501 34T342 158T219 318T139 507T111 717Q111 826 139 927T218 1116T341 1276T500 1400T689 1480T899 1509Q1006 1509 1106 1481T1294 1401T1454 1278T1577 1117T1657 928T1686 717Z" />
<glyph unicode="&#xaf;" glyph-name="overscore" horiz-adv-x="625" d="M760 1200H140L169 1335H786L760 1200Z" />
<glyph unicode="0;" glyph-name="degree" horiz-adv-x="655" d="M471 1249Q471 1279 460 1305T430 1350T384 1381T328 1393Q298 1393 272 1382T226 1351T195 1305T184 1249Q184 1219 195 1193T225 1148T271 1117T328 1106Q358 1106 384 1117T429 1147T460
1193T471 1249ZM553 1249Q553 1202 536 1161T488 1090T416 1042T328 1024Q281 1024 240 1041T168 1089T120 1161T102 1249Q102 1296 119 1337T168 1409T240 1457T328 1475Q375 1475 416 1458T487 1409T535 1337T553 1249Z" />
<glyph unicode="1;" glyph-name="plusminus" horiz-adv-x="2048" d="M410 0V127H1638V0H410ZM1087 733V365H961V733H410V860H961V1229H1087V860H1638V733H1087Z" />
<glyph unicode="2;" glyph-name="twosuperior" horiz-adv-x="739" d="M815 1436Q815 1379 788 1325T715 1220T613 1123T497 1036T383 960T285 897H641L684 999H760L717 784H96L115 874Q257 968 362 1041T536 1177T638 1298T672 1421Q672 1484 636 1514T537
1544Q495 1544 465 1534T426 1518L399 1391Q391 1384 380 1379Q371 1374 358 1371T328 1368Q322 1368 310 1369T287 1377T267 1394T258 1425Q258 1462 285 1497T356 1560T457 1605T575 1622Q622 1622 665 1613T742 1581T795 1524T815 1436Z" />
<glyph unicode="3;" glyph-name="threesuperior" horiz-adv-x="739" d="M819 1446Q819 1412 805 1380T764 1319T697 1267T606 1227Q638 1221 667 1210T719 1179T755 1132T768 1067Q768 1006 737 952T653 858T528 794T377 770Q315 770 270 783T195 816T151
861T137 909Q137 918 140 931T153 956T177 976T217 985Q228 985 237 984T254 980Q263 977 270 975L291 870Q300 865 327 855T391 844Q442 844 485 860T559 904T609 970T627 1051Q627 1090 612 1114T575 1151T526 1169T477 1174Q459 1174 443 1173T415 1170Q401
1168 389 1167L401 1253Q465 1249 516 1261T603 1298T657 1357T676 1430Q676 1463 664 1486T632 1523T589 1543T543 1550Q519 1550 499 1546T464 1535T438 1523T424 1513L406 1399Q393 1393 381 1389Q370 1385 358 1383T336 1380Q327 1380 316 1383T295 1395T277
1415T270 1446Q270 1486 299 1518T373 1574T475 1609T586 1622Q638 1622 681 1611T754 1579T802 1524T819 1446Z" />
<glyph unicode="4;" glyph-name="acute" horiz-adv-x="598" d="M774 1411Q774 1382 761 1363T725 1327L418 1128H274L553 1448Q563 1460 574 1469T598 1485T629 1495T670 1499Q697 1499 716 1491T748 1471T767 1442T774 1411Z" />
<glyph unicode="5;" glyph-name="mu" horiz-adv-x="1120" d="M1069 221Q1057 174 1036 130T983 52T909 -4T813 -25Q768 -25 740 -9T696 36T677 100T674 174Q639 142 600 107T518 42T427 -6T328 -25Q303 -25 278 -21T231 -5T192 23T164 66Q150 -7 145 -76T139
-219Q139 -251 136 -292T120 -369T82 -430T12 -455Q-6 -455 -19 -448T-40 -428T-53 -401T-57 -369Q-57 -340 -47 -307T-22 -239T8 -173T35 -113Q63 -34 83 45T119 207L272 987H463L348 403Q339 360 332 316T324 225Q324 200 331 178T352 140T387 114T436 104Q473
104 507 117T572 151T632 197T686 246L834 987H1024L885 281Q882 269 878 251T870 211T866 169T869 130T884 103T915 92Q939 92 957 105T988 139T1011 181T1028 221H1069Z" />
<glyph unicode="6;" glyph-name="paragraph" horiz-adv-x="995" d="M862 1280V-162H764V1290H606V575Q495 575 403 592T245 655T141 777T104 973Q104 1086 136 1162T230 1286T382 1353T586 1374H989V1300L862 1280Z" />
<glyph unicode="7;" glyph-name="middot" horiz-adv-x="385" d="M313 696Q313 671 304 649T278 611T240 585T193 575Q167 575 145 584T107 610T82 649T72 696Q72 721 81 743T107 782T145 807T193 817Q218 817 240 808T278 782T303 744T313 696Z" />
<glyph unicode="8;" glyph-name="cedilla" horiz-adv-x="487" d="M336 -229Q336 -282 313 -324T250 -396T158 -441T47 -457Q24 -457 0 -454T-47 -448T-87 -440T-117 -432L-98 -350Q-75 -356 -37 -364T35 -373Q49 -373 72 -369T116 -355T154 -325T170 -276Q170
-261 164 -251T148 -234T126 -224T102 -221Q93 -221 81 -226T37 -248L84 0H190L168 -125Q176 -123 183 -122T199 -121Q336 -121 336 -229Z" />
<glyph unicode="9;" glyph-name="onesuperior" horiz-adv-x="739" d="M518 895Q512 861 547 858L635 852V784H236V854L348 858Q370 860 380 869T393 895L516 1499L319 1477V1542L625 1622H668L518 895Z" />
<glyph unicode="a;" glyph-name="ordmasculine" horiz-adv-x="674" d="M604 1157Q604 1245 571 1291T487 1337Q444 1337 407 1308T343 1232T301 1127T285 1008Q285 915 318 870T401 825Q449 825 486 856T550 936T590 1044T604 1157ZM659 627H72L86 692H674L659
627ZM739 1153Q739 1078 713 1009T640 887T528 802T385 770Q331 770 288 786T214 832T167 904T150 1001Q150 1076 175 1146T247 1270T359 1358T502 1391Q550 1391 593 1377T669 1334T720 1260T739 1153Z" />
<glyph unicode="b;" glyph-name="guillemotright" horiz-adv-x="905" d="M436 412L10 115L41 274L322 494L127 707L154 868L469 571L436 412ZM840 412L412 115L446 274L725 494L530 707L559 868L870 571L840 412Z" />
<glyph unicode="c;" glyph-name="onequarter" horiz-adv-x="1800" d="M1055 332H1352L1421 674L1055 332ZM422 709Q416 674 451 674L539 666V598H139V668L252 674Q274 674 284 683T299 709L420 1313L223 1290V1356L528 1436H571L422 709ZM350 0H205L1395 1430H1540L350
0ZM1597 238H1450L1391 -43H1272L1329 238H907L926 328L1483 840H1577L1470 332H1618L1597 238Z" />
<glyph unicode="d;" glyph-name="onehalf" horiz-adv-x="1800" d="M422 709Q416 674 451 674L539 666V598H139V668L252 674Q274 674 284 683T299 709L420 1313L223 1290V1356L528 1436H571L422 709ZM350 0H205L1395 1430H1540L350 0ZM1669 657Q1669 600 1641
545T1567 439T1463 341T1345 253T1229 177T1130 115H1491L1536 215H1612L1567 0H938L958 90Q1002 119 1061 154T1183 230T1307 319T1416 417T1494 525T1524 643Q1524 708 1486 737T1384 766Q1342 766 1312 755T1272 739L1245 612Q1237 605 1226 601Q1217 596 1204
593T1174 590Q1166 590 1154 591T1131 599T1112 616T1104 647Q1104 685 1131 721T1203 784T1306 829T1425 846Q1473 846 1517 836T1594 804T1648 746T1669 657Z" />
<glyph unicode="e;" glyph-name="threequarters" horiz-adv-x="1800" d="M1120 332H1417L1489 674L1120 332ZM784 1266Q784 1232 770 1200T729 1138T662 1084T569 1044Q601 1039 630 1028T682 997T718 950T731 885Q731 823 700 769T614 674T489 610T336 586Q272
586 226 599T150 632T106 676T92 725Q92 734 95 747T106 773T130 794T172 803Q183 803 192 801T210 797Q219 794 227 791L248 686Q257 681 285 670T350 659Q401 659 445 675T520 720T570 785T588 866Q588 918 564 944T503 981T425 991T346 985L360 1073Q426 1069
478 1081T566 1118T620 1176T639 1249Q639 1282 627 1305T595 1342T551 1363T504 1370Q479 1370 459 1366T423 1356T397 1344T383 1335L365 1219Q352 1213 339 1209Q328 1205 316 1203T293 1200Q284 1200 273 1203T251 1215T234 1237T227 1268Q227 1308 256 1340T331
1396T434 1433T547 1446Q600 1446 643 1435T718 1401T767 1345T784 1266ZM444 0H299L1489 1430H1634L444 0ZM1663 238H1516L1458 -43H1339L1397 238H973L991 328L1550 840H1642L1536 332H1683L1663 238Z" />
<glyph unicode="f;" glyph-name="questiondown" horiz-adv-x="995" d="M840 188Q840 158 823 120T763 48T652 -9T481 -33Q391 -33 321 -13T203 46T131 138T106 260Q106 364 147 446T256 591T406 702T573 784L621 1028H760L702 723Q632 701 566 662T447 567T362
440T330 283Q330 177 387 124T545 70L668 272H727Q780 272 810 251T840 188ZM858 1286Q858 1262 849 1240T822 1199T780 1170T723 1159Q691 1159 667 1169T626 1197T601 1237T592 1284Q592 1308 600 1330T625 1369T666 1397T723 1407Q754 1407 779 1397T822 1371T848
1332T858 1286Z" />
<glyph unicode="0;" glyph-name="Agrave" horiz-adv-x="1378" d="M766 1155L463 623H854L766 1155ZM801 0V86L895 96Q940 102 934 135L872 526H408L199 135Q188 115 198 107T238 96L332 86V0H-109V86L6 98L762 1407H926L1147 135Q1150 115 1158 107T1188 96L1282
86V0H801ZM920 1528L623 1723Q602 1737 589 1757T576 1809Q576 1824 580 1840T595 1869T623 1890T668 1899Q690 1899 705 1895T733 1885T754 1869T773 1848L1047 1528H920Z" />
<glyph unicode="1;" glyph-name="Aacute" horiz-adv-x="1378" d="M766 1155L463 623H854L766 1155ZM801 0V86L895 96Q940 102 934 135L872 526H408L199 135Q188 115 198 107T238 96L332 86V0H-109V86L6 98L762 1407H926L1147 135Q1150 115 1158 107T1188 96L1282
86V0H801ZM1177 1811Q1177 1782 1164 1763T1128 1727L821 1528H677L956 1848Q966 1860 977 1869T1001 1885T1032 1895T1073 1899Q1100 1899 1119 1891T1151 1871T1170 1842T1177 1811Z" />
<glyph unicode="2;" glyph-name="Acircumflex" horiz-adv-x="1378" d="M766 1155L463 623H854L766 1155ZM801 0V86L895 96Q940 102 934 135L872 526H408L199 135Q188 115 198 107T238 96L332 86V0H-109V86L6 98L762 1407H926L1147 135Q1150 115 1158 107T1188
96L1282 86V0H801ZM1051 1528L883 1717L637 1528H494L832 1875H993L1194 1528H1051Z" />
<glyph unicode="3;" glyph-name="Atilde" horiz-adv-x="1378" d="M766 1155L463 623H854L766 1155ZM801 0V86L895 96Q940 102 934 135L872 526H408L199 135Q188 115 198 107T238 96L332 86V0H-109V86L6 98L762 1407H926L1147 135Q1150 115 1158 107T1188 96L1282
86V0H801ZM1274 1815Q1252 1770 1224 1731T1159 1662T1077 1615T977 1598Q935 1598 904 1611T841 1645Q828 1654 815 1662T787 1677T753 1688T710 1692Q697 1692 681 1685T648 1666T618 1636T596 1598H487Q508 1643 536 1682T601 1751T682 1798T782 1815Q824 1815
855 1802T919 1766Q945 1751 974 1736T1050 1721Q1064 1721 1080 1728T1113 1747T1142 1777T1165 1815H1274Z" />
<glyph unicode="4;" glyph-name="Adieresis" horiz-adv-x="1378" d="M766 1155L463 623H854L766 1155ZM801 0V86L895 96Q940 102 934 135L872 526H408L199 135Q188 115 198 107T238 96L332 86V0H-109V86L6 98L762 1407H926L1147 135Q1150 115 1158 107T1188
96L1282 86V0H801ZM781 1713Q781 1690 772 1669T748 1632T712 1607T668 1598Q646 1598 626 1607T591 1632T567 1668T558 1711Q558 1733 567 1753T591 1790T626 1815T668 1825Q691 1825 711 1816T747 1792T772 1757T781 1713ZM1205 1713Q1205 1690 1197 1669T1173
1632T1138 1607T1094 1598Q1071 1598 1051 1607T1015 1632T991 1669T982 1713Q982 1734 991 1754T1016 1790T1052 1815T1094 1825Q1117 1825 1137 1816T1173 1792T1196 1757T1205 1713Z" />
<glyph unicode="5;" glyph-name="Aring" horiz-adv-x="1378" d="M766 1155L463 623H854L766 1155ZM801 0V86L895 96Q940 102 934 135L872 526H408L199 135Q188 115 198 107T238 96L332 86V0H-109V86L6 98L762 1407H926L1147 135Q1150 115 1158 107T1188 96L1282
86V0H801ZM1030 1797Q1030 1845 999 1873T921 1901Q889 1901 860 1888T807 1853T769 1802T755 1741Q755 1693 787 1664T866 1635Q897 1635 927 1648T979 1684T1016 1736T1030 1797ZM850 1528Q807 1528 771 1542T708 1583T666 1645T651 1723Q651 1779 674 1830T737
1921T828 1984T936 2008Q979 2008 1015 1994T1079 1953T1121 1890T1136 1811Q1136 1754 1113 1703T1049 1613T958 1551T850 1528Z" />
<glyph unicode="6;" glyph-name="AE" horiz-adv-x="1917" d="M633 627H1028L1149 1253L633 627ZM1901 1067H1769V1233Q1769 1255 1762 1263T1731 1272H1362L1264 768H1520Q1541 768 1552 776T1569 807L1608 944H1724L1632 475H1518L1536 621Q1542 662 1497
662H1243L1135 102H1597Q1617 102 1628 113T1647 143L1710 340H1835L1769 0H768V86L893 96Q912 98 921 111T932 135L1008 518H547L231 135Q220 123 232 111T270 96L358 86V0H-109V86L-10 96Q4 98 15 109T41 135L940 1237Q951 1249 949 1262T934 1278L819 1288V1374H1962L1901
1067Z" />
<glyph unicode="7;" glyph-name="Ccedilla" horiz-adv-x="1290" d="M817 -229Q817 -282 794 -324T731 -396T639 -441T528 -457Q505 -457 481 -454T434 -448T394 -440T364 -432L383 -350Q406 -356 444 -364T516 -373Q530 -373 553 -369T597 -355T635 -325T651
-276Q651 -261 645 -251T629 -234T607 -224T583 -221Q574 -221 562 -226T518 -248L560 -26Q520 -20 484 -10Q402 13 339 53T230 148T155 267T112 403T98 547Q98 656 125 762T203 963T327 1140T491 1281T691 1373T922 1407Q972 1407 1018 1402T1111 1386T1209 1360T1319
1325L1264 1006H1143V1196Q1143 1212 1132 1229T1106 1251Q1102 1253 1088 1261T1052 1279T999 1295T932 1303Q853 1303 777 1278T633 1206T506 1091T406 937T339 746T315 524Q315 408 348 323T439 182T572 99T735 72Q768 72 795 76T841 87T873 98T889 106Q901
108 915 120T936 147L1024 381H1145L1090 49Q1078 45 1039 32T942 5T813 -21T668 -33H665L649 -125Q657 -123 664 -122T680 -121Q817 -121 817 -229Z" />
<glyph unicode="8;" glyph-name="Egrave" horiz-adv-x="1143" d="M1126 1067H995V1233Q995 1255 987 1263T956 1272H563L469 768H743Q765 768 776 776T795 807L834 944H948L858 475H741L762 621Q768 662 723 662H446L340 102H821Q843 102 854 113T872 143L936
340H1061L993 0H-31V86L88 96Q131 99 137 135L350 1237Q353 1254 345 1265T311 1278L197 1288V1374H1188L1126 1067ZM815 1528L518 1723Q497 1737 484 1757T471 1809Q471 1824 475 1840T490 1869T518 1890T563 1899Q585 1899 600 1895T628 1885T649 1869T668 1848L942
1528H815Z" />
<glyph unicode="9;" glyph-name="Eacute" horiz-adv-x="1143" d="M1126 1067H995V1233Q995 1255 987 1263T956 1272H563L469 768H743Q765 768 776 776T795 807L834 944H948L858 475H741L762 621Q768 662 723 662H446L340 102H821Q843 102 854 113T872 143L936
340H1061L993 0H-31V86L88 96Q131 99 137 135L350 1237Q353 1254 345 1265T311 1278L197 1288V1374H1188L1126 1067ZM1072 1811Q1072 1782 1059 1763T1023 1727L716 1528H572L851 1848Q861 1860 872 1869T896 1885T927 1895T968 1899Q995 1899 1014 1891T1046 1871T1065
1842T1072 1811Z" />
<glyph unicode="a;" glyph-name="Ecircumflex" horiz-adv-x="1143" d="M1126 1067H995V1233Q995 1255 987 1263T956 1272H563L469 768H743Q765 768 776 776T795 807L834 944H948L858 475H741L762 621Q768 662 723 662H446L340 102H821Q843 102 854 113T872
143L936 340H1061L993 0H-31V86L88 96Q131 99 137 135L350 1237Q353 1254 345 1265T311 1278L197 1288V1374H1188L1126 1067ZM946 1528L778 1717L532 1528H389L727 1875H888L1089 1528H946Z" />
<glyph unicode="b;" glyph-name="Edieresis" horiz-adv-x="1143" d="M1126 1067H995V1233Q995 1255 987 1263T956 1272H563L469 768H743Q765 768 776 776T795 807L834 944H948L858 475H741L762 621Q768 662 723 662H446L340 102H821Q843 102 854 113T872 143L936
340H1061L993 0H-31V86L88 96Q131 99 137 135L350 1237Q353 1254 345 1265T311 1278L197 1288V1374H1188L1126 1067ZM676 1713Q676 1690 667 1669T643 1632T607 1607T563 1598Q541 1598 521 1607T486 1632T462 1668T453 1711Q453 1733 462 1753T486 1790T521 1815T563
1825Q586 1825 606 1816T642 1792T667 1757T676 1713ZM1100 1713Q1100 1690 1092 1669T1068 1632T1033 1607T989 1598Q966 1598 946 1607T910 1632T886 1669T877 1713Q877 1734 886 1754T911 1790T947 1815T989 1825Q1012 1825 1032 1816T1068 1792T1091 1757T1100
1713Z" />
<glyph unicode="c;" glyph-name="Igrave" horiz-adv-x="643" d="M598 1278Q578 1276 570 1267T557 1237L344 135Q341 120 349 109T385 96L504 86V0H-31V86L98 96Q117 98 125 107T137 135L350 1237Q353 1254 345 1265T311 1278L197 1288V1374H729V1288L598
1278ZM569 1528L272 1723Q251 1737 238 1757T225 1809Q225 1824 229 1840T244 1869T272 1890T317 1899Q339 1899 354 1895T382 1885T403 1869T422 1848L696 1528H569Z" />
<glyph unicode="d;" glyph-name="Iacute" horiz-adv-x="643" d="M598 1278Q578 1276 570 1267T557 1237L344 135Q341 120 349 109T385 96L504 86V0H-31V86L98 96Q117 98 125 107T137 135L350 1237Q353 1254 345 1265T311 1278L197 1288V1374H729V1288L598
1278ZM826 1811Q826 1782 813 1763T777 1727L470 1528H326L605 1848Q615 1860 626 1869T650 1885T681 1895T722 1899Q749 1899 768 1891T800 1871T819 1842T826 1811Z" />
<glyph unicode="e;" glyph-name="Icircumflex" horiz-adv-x="643" d="M598 1278Q578 1276 570 1267T557 1237L344 135Q341 120 349 109T385 96L504 86V0H-31V86L98 96Q117 98 125 107T137 135L350 1237Q353 1254 345 1265T311 1278L197 1288V1374H729V1288L598
1278ZM700 1528L532 1717L286 1528H143L481 1875H642L843 1528H700Z" />
<glyph unicode="f;" glyph-name="Idieresis" horiz-adv-x="643" d="M598 1278Q578 1276 570 1267T557 1237L344 135Q341 120 349 109T385 96L504 86V0H-31V86L98 96Q117 98 125 107T137 135L350 1237Q353 1254 345 1265T311 1278L197 1288V1374H729V1288L598
1278ZM430 1713Q430 1690 421 1669T397 1632T361 1607T317 1598Q295 1598 275 1607T240 1632T216 1668T207 1711Q207 1733 216 1753T240 1790T275 1815T317 1825Q340 1825 360 1816T396 1792T421 1757T430 1713ZM854 1713Q854 1690 846 1669T822 1632T787 1607T743
1598Q720 1598 700 1607T664 1632T640 1669T631 1713Q631 1734 640 1754T665 1790T701 1815T743 1825Q766 1825 786 1816T822 1792T845 1757T854 1713Z" />
<glyph unicode="&#xd0;" glyph-name="Eth" horiz-adv-x="1374" d="M59 776H261L350 1237Q353 1254 345 1265T309 1278L195 1288V1374H684Q824 1374 943 1347T1150 1258T1287 1096T1337 850Q1337 724 1308 612T1224 406T1091 236T914 109T699 28T451 0H-31V86L96
96Q116 98 124 107T137 135L240 668H59V776ZM1116 868Q1116 996 1077 1074T972 1195T819 1253T637 1272H563L467 776H711V668H446L338 106H487Q642 108 760 172T957 343T1076 585T1116 868Z" />
<glyph unicode="&#xd1;" glyph-name="Ntilde" horiz-adv-x="1456" d="M1430 1278Q1410 1276 1397 1267T1378 1237L1137 0H989L473 1087L291 135Q288 120 296 109T332 96L446 86V0H-29V86L88 96Q130 99 139 135L350 1237Q353 1254 345 1265T311 1278L197 1288V1374H592V1321L1053
344L1227 1237Q1230 1254 1222 1265T1188 1278L1071 1288V1374H1546V1288L1430 1278ZM1321 1815Q1299 1770 1271 1731T1206 1662T1124 1615T1024 1598Q982 1598 951 1611T888 1645Q875 1654 862 1662T834 1677T800 1688T757 1692Q744 1692 728 1685T695 1666T665
1636T643 1598H534Q555 1643 583 1682T648 1751T729 1798T829 1815Q871 1815 902 1802T966 1766Q992 1751 1021 1736T1097 1721Q1111 1721 1127 1728T1160 1747T1189 1777T1212 1815H1321Z" />
<glyph unicode="&#xd2;" glyph-name="Ograve" horiz-adv-x="1454" d="M1182 854Q1182 956 1157 1039T1086 1181T978 1273T842 1305Q767 1305 700 1272T576 1182T474 1049T396 885T347 705T330 520Q330 416 356 334T428 194T536 105T670 74Q745 74 812 107T936
199T1038 333T1116 497T1165 675T1182 854ZM1415 854Q1415 746 1392 639T1325 432T1216 249T1067 101T879 3T655 -33Q532 -33 430 7T254 123T139 303T98 537Q98 647 123 754T195 958T310 1137T462 1279T647 1373T860 1407Q987 1407 1090 1364T1265 1245T1376 1069T1415
854ZM974 1528L677 1723Q656 1737 643 1757T630 1809Q630 1824 634 1840T649 1869T677 1890T722 1899Q744 1899 759 1895T787 1885T808 1869T827 1848L1101 1528H974Z" />
<glyph unicode="&#xd3;" glyph-name="Oacute" horiz-adv-x="1454" d="M1182 854Q1182 956 1157 1039T1086 1181T978 1273T842 1305Q767 1305 700 1272T576 1182T474 1049T396 885T347 705T330 520Q330 416 356 334T428 194T536 105T670 74Q745 74 812 107T936
199T1038 333T1116 497T1165 675T1182 854ZM1415 854Q1415 746 1392 639T1325 432T1216 249T1067 101T879 3T655 -33Q532 -33 430 7T254 123T139 303T98 537Q98 647 123 754T195 958T310 1137T462 1279T647 1373T860 1407Q987 1407 1090 1364T1265 1245T1376 1069T1415
854ZM1231 1811Q1231 1782 1218 1763T1182 1727L875 1528H731L1010 1848Q1020 1860 1031 1869T1055 1885T1086 1895T1127 1899Q1154 1899 1173 1891T1205 1871T1224 1842T1231 1811Z" />
<glyph unicode="&#xd4;" glyph-name="Ocircumflex" horiz-adv-x="1454" d="M1182 854Q1182 956 1157 1039T1086 1181T978 1273T842 1305Q767 1305 700 1272T576 1182T474 1049T396 885T347 705T330 520Q330 416 356 334T428 194T536 105T670 74Q745 74 812 107T936
199T1038 333T1116 497T1165 675T1182 854ZM1415 854Q1415 746 1392 639T1325 432T1216 249T1067 101T879 3T655 -33Q532 -33 430 7T254 123T139 303T98 537Q98 647 123 754T195 958T310 1137T462 1279T647 1373T860 1407Q987 1407 1090 1364T1265 1245T1376 1069T1415
854ZM1105 1528L937 1717L691 1528H548L886 1875H1047L1248 1528H1105Z" />
<glyph unicode="&#xd5;" glyph-name="Otilde" horiz-adv-x="1454" d="M1182 854Q1182 956 1157 1039T1086 1181T978 1273T842 1305Q767 1305 700 1272T576 1182T474 1049T396 885T347 705T330 520Q330 416 356 334T428 194T536 105T670 74Q745 74 812 107T936
199T1038 333T1116 497T1165 675T1182 854ZM1415 854Q1415 746 1392 639T1325 432T1216 249T1067 101T879 3T655 -33Q532 -33 430 7T254 123T139 303T98 537Q98 647 123 754T195 958T310 1137T462 1279T647 1373T860 1407Q987 1407 1090 1364T1265 1245T1376 1069T1415
854ZM1328 1815Q1306 1770 1278 1731T1213 1662T1131 1615T1031 1598Q989 1598 958 1611T895 1645Q882 1654 869 1662T841 1677T807 1688T764 1692Q751 1692 735 1685T702 1666T672 1636T650 1598H541Q562 1643 590 1682T655 1751T736 1798T836 1815Q878 1815 909
1802T973 1766Q999 1751 1028 1736T1104 1721Q1118 1721 1134 1728T1167 1747T1196 1777T1219 1815H1328Z" />
<glyph unicode="&#xd6;" glyph-name="Odieresis" horiz-adv-x="1454" d="M1182 854Q1182 956 1157 1039T1086 1181T978 1273T842 1305Q767 1305 700 1272T576 1182T474 1049T396 885T347 705T330 520Q330 416 356 334T428 194T536 105T670 74Q745 74 812 107T936
199T1038 333T1116 497T1165 675T1182 854ZM1415 854Q1415 746 1392 639T1325 432T1216 249T1067 101T879 3T655 -33Q532 -33 430 7T254 123T139 303T98 537Q98 647 123 754T195 958T310 1137T462 1279T647 1373T860 1407Q987 1407 1090 1364T1265 1245T1376 1069T1415
854ZM835 1713Q835 1690 826 1669T802 1632T766 1607T722 1598Q700 1598 680 1607T645 1632T621 1668T612 1711Q612 1733 621 1753T645 1790T680 1815T722 1825Q745 1825 765 1816T801 1792T826 1757T835 1713ZM1259 1713Q1259 1690 1251 1669T1227 1632T1192 1607T1148
1598Q1125 1598 1105 1607T1069 1632T1045 1669T1036 1713Q1036 1734 1045 1754T1070 1790T1106 1815T1148 1825Q1171 1825 1191 1816T1227 1792T1250 1757T1259 1713Z" />
<glyph unicode="&#xd7;" glyph-name="multiply" horiz-adv-x="2048" d="M1497 61L1024 537L551 61L471 141L942 614L471 1087L551 1167L1024 692L1497 1167L1577 1087L1106 614L1577 141L1497 61Z" />
<glyph unicode="&#xd8;" glyph-name="Oslash" horiz-adv-x="1454" d="M1182 854Q1182 948 1161 1024T1102 1159L451 168Q496 121 551 98T670 74Q745 74 812 107T936 198T1038 333T1116 496T1165 675T1182 854ZM1018 1247Q980 1275 936 1290T842 1305Q767 1305
700 1272T576 1182T474 1049T396 885T347 705T330 520Q330 372 383 266L1018 1247ZM1415 854Q1415 746 1392 639T1325 432T1216 249T1067 101T879 3T655 -33Q574 -33 502 -15T367 39L233 -164L145 -98L274 102Q191 178 145 287T98 537Q98 647 123 754T195 958T310
1137T462 1279T647 1373T860 1407Q925 1407 983 1396T1092 1364L1202 1534L1307 1470L1196 1305Q1301 1229 1358 1112T1415 854Z" />
<glyph unicode="&#xd9;" glyph-name="Ugrave" horiz-adv-x="1448" d="M1415 1278Q1397 1276 1383 1267T1366 1237L1208 438Q1187 327 1141 240T1024 92T856 -1T637 -33Q542 -33 461 -14T318 49T223 160T188 326Q188 357 194 413T215 541L358 1237Q361 1254 353
1265T317 1278L203 1288V1374H735V1288L614 1278Q596 1276 582 1267T565 1237L424 541Q412 481 407 434T401 358Q401 293 421 245T479 165T570 116T690 100Q790 100 857 133T970 223T1041 353T1083 510L1227 1237Q1230 1254 1222 1265T1186 1278L1071 1288V1374H1534V1288L1415
1278ZM981 1528L684 1723Q663 1737 650 1757T637 1809Q637 1824 641 1840T656 1869T684 1890T729 1899Q751 1899 766 1895T794 1885T815 1869T834 1848L1108 1528H981Z" />
<glyph unicode="&#xda;" glyph-name="Uacute" horiz-adv-x="1448" d="M1415 1278Q1397 1276 1383 1267T1366 1237L1208 438Q1187 327 1141 240T1024 92T856 -1T637 -33Q542 -33 461 -14T318 49T223 160T188 326Q188 357 194 413T215 541L358 1237Q361 1254 353
1265T317 1278L203 1288V1374H735V1288L614 1278Q596 1276 582 1267T565 1237L424 541Q412 481 407 434T401 358Q401 293 421 245T479 165T570 116T690 100Q790 100 857 133T970 223T1041 353T1083 510L1227 1237Q1230 1254 1222 1265T1186 1278L1071 1288V1374H1534V1288L1415
1278ZM1238 1811Q1238 1782 1225 1763T1189 1727L882 1528H738L1017 1848Q1027 1860 1038 1869T1062 1885T1093 1895T1134 1899Q1161 1899 1180 1891T1212 1871T1231 1842T1238 1811Z" />
<glyph unicode="&#xdb;" glyph-name="Ucircumflex" horiz-adv-x="1448" d="M1415 1278Q1397 1276 1383 1267T1366 1237L1208 438Q1187 327 1141 240T1024 92T856 -1T637 -33Q542 -33 461 -14T318 49T223 160T188 326Q188 357 194 413T215 541L358 1237Q361 1254
353 1265T317 1278L203 1288V1374H735V1288L614 1278Q596 1276 582 1267T565 1237L424 541Q412 481 407 434T401 358Q401 293 421 245T479 165T570 116T690 100Q790 100 857 133T970 223T1041 353T1083 510L1227 1237Q1230 1254 1222 1265T1186 1278L1071 1288V1374H1534V1288L1415
1278ZM1112 1528L944 1717L698 1528H555L893 1875H1054L1255 1528H1112Z" />
<glyph unicode="&#xdc;" glyph-name="Udieresis" horiz-adv-x="1448" d="M1415 1278Q1397 1276 1383 1267T1366 1237L1208 438Q1187 327 1141 240T1024 92T856 -1T637 -33Q542 -33 461 -14T318 49T223 160T188 326Q188 357 194 413T215 541L358 1237Q361 1254
353 1265T317 1278L203 1288V1374H735V1288L614 1278Q596 1276 582 1267T565 1237L424 541Q412 481 407 434T401 358Q401 293 421 245T479 165T570 116T690 100Q790 100 857 133T970 223T1041 353T1083 510L1227 1237Q1230 1254 1222 1265T1186 1278L1071 1288V1374H1534V1288L1415
1278ZM842 1713Q842 1690 833 1669T809 1632T773 1607T729 1598Q707 1598 687 1607T652 1632T628 1668T619 1711Q619 1733 628 1753T652 1790T687 1815T729 1825Q752 1825 772 1816T808 1792T833 1757T842 1713ZM1266 1713Q1266 1690 1258 1669T1234 1632T1199
1607T1155 1598Q1132 1598 1112 1607T1076 1632T1052 1669T1043 1713Q1043 1734 1052 1754T1077 1790T1113 1815T1155 1825Q1178 1825 1198 1816T1234 1792T1257 1757T1266 1713Z" />
<glyph unicode="&#xdd;" glyph-name="Yacute" horiz-adv-x="1309" d="M1341 1280Q1326 1278 1311 1268T1288 1249L768 575L682 135Q677 120 686 109T721 96L836 86V0H303V86L422 96Q440 98 453 107T471 135L555 557L326 1249Q319 1269 309 1273T287 1280L172 1288V1374H702V1288L571
1280Q554 1278 546 1267T543 1239L711 707L1106 1239Q1110 1246 1113 1253T1115 1265T1109 1275T1090 1280L963 1288V1374H1456V1288L1341 1280ZM1166 1811Q1166 1782 1153 1763T1117 1727L810 1528H666L945 1848Q955 1860 966 1869T990 1885T1021 1895T1062 1899Q1089
1899 1108 1891T1140 1871T1159 1842T1166 1811Z" />
<glyph unicode="&#xde;" glyph-name="Thorn" horiz-adv-x="1159" d="M1116 788Q1116 665 1069 567T939 399T741 293T494 256H456Q434 256 413 257Q388 257 362 258L340 135Q337 120 345 109T381 96L498 86V0H-35V86L84 96Q124 99 133 135L348 1237Q351 1254 343
1265T307 1278L193 1288V1374H721V1288L602 1278Q584 1276 570 1267T553 1237L530 1116H651Q776 1116 864 1092T1009 1025T1090 921T1116 788ZM903 756Q903 815 887 864T833 948T735 1002T586 1022Q567 1022 546 1021T510 1018L383 365Q473 357 562 372T725 430Q762
453 794 484T851 556T889 646T903 756Z" />
<glyph unicode="&#xdf;" glyph-name="germandbls" horiz-adv-x="1139" d="M1085 1239Q1085 1149 1063 1062T1016 889Q979 892 956 893T913 895Q888 895 852 890T782 869T724 827T700 756Q700 727 715 701T756 649T814 598T881 545Q915 519 947 491T1004 433T1044
370T1059 299Q1059 223 1028 163T944 61T820 -3T670 -25Q617 -25 565 -15T472 18T405 77T379 166Q379 209 409 239T502 270Q536 270 558 260T608 231L571 129Q603 89 635 74T702 59Q734 59 764 70T819 103T857 157T872 231Q872 262 859 288T823 339T769 388T702
440Q670 465 641 490T588 545T551 608T537 682Q537 746 563 799T635 891T740 955T868 985Q887 1050 900 1115T913 1243Q913 1285 901 1316T868 1368T819 1399T756 1409Q687 1409 632 1378T534 1292T460 1166T406 1010Q370 875 353 737T320 460T281 186T209 -84Q197
-117 174 -158T119 -243T50 -326T-29 -398T-114 -449T-201 -469Q-266 -469 -297 -439T-328 -358Q-328 -310 -274 -268L-63 -324Q-42 -304 -24 -269T9 -192T36 -103T58 -13T74 68T84 129L203 932Q214 1006 236 1077T291 1213T370 1331T475 1424T607 1486T768 1509Q840
1509 899 1492T999 1441T1062 1357T1085 1239Z" />
<glyph unicode="&#xe0;" glyph-name="agrave" horiz-adv-x="1067" d="M760 803Q761 808 753 826T732 863T707 898T684 913Q606 913 545 888T437 819T359 718T306 599T277 474T268 354Q268 311 275 268T299 190T347 133T426 111Q462 111 498 127T565 164T619 206T653
238L760 803ZM1061 55Q1049 50 1017 37T946 10T866 -14T795 -25Q758 -25 733 -16T691 11T665 55T653 115Q630 93 599 69T531 23T451 -11T362 -25Q302 -25 257 -8T178 37T124 103T89 181T71 263T66 342Q66 421 83 501T133 656T217 796T332 909T478 984T655 1012Q683
1012 710 1006T762 989T806 965T840 938L870 987H1010Q1005 975 999 959T987 925T977 893T971 870Q964 843 951 789T924 666T894 524T866 383T846 265T838 190Q838 136 861 116T926 96Q936 96 955 100T996 111T1035 122T1061 129V55ZM786 1128L489 1323Q468 1337
455 1357T442 1409Q442 1424 446 1440T461 1469T489 1490T534 1499Q556 1499 571 1495T599 1485T620 1469T639 1448L913 1128H786Z" />
<glyph unicode="&#xe1;" glyph-name="aacute" horiz-adv-x="1067" d="M760 803Q761 808 753 826T732 863T707 898T684 913Q606 913 545 888T437 819T359 718T306 599T277 474T268 354Q268 311 275 268T299 190T347 133T426 111Q462 111 498 127T565 164T619 206T653
238L760 803ZM1061 55Q1049 50 1017 37T946 10T866 -14T795 -25Q758 -25 733 -16T691 11T665 55T653 115Q630 93 599 69T531 23T451 -11T362 -25Q302 -25 257 -8T178 37T124 103T89 181T71 263T66 342Q66 421 83 501T133 656T217 796T332 909T478 984T655 1012Q683
1012 710 1006T762 989T806 965T840 938L870 987H1010Q1005 975 999 959T987 925T977 893T971 870Q964 843 951 789T924 666T894 524T866 383T846 265T838 190Q838 136 861 116T926 96Q936 96 955 100T996 111T1035 122T1061 129V55ZM1043 1411Q1043 1382 1030
1363T994 1327L687 1128H543L822 1448Q832 1460 843 1469T867 1485T898 1495T939 1499Q966 1499 985 1491T1017 1471T1036 1442T1043 1411Z" />
<glyph unicode="&#xe2;" glyph-name="acircumflex" horiz-adv-x="1067" d="M760 803Q761 808 753 826T732 863T707 898T684 913Q606 913 545 888T437 819T359 718T306 599T277 474T268 354Q268 311 275 268T299 190T347 133T426 111Q462 111 498 127T565 164T619
206T653 238L760 803ZM1061 55Q1049 50 1017 37T946 10T866 -14T795 -25Q758 -25 733 -16T691 11T665 55T653 115Q630 93 599 69T531 23T451 -11T362 -25Q302 -25 257 -8T178 37T124 103T89 181T71 263T66 342Q66 421 83 501T133 656T217 796T332 909T478 984T655
1012Q683 1012 710 1006T762 989T806 965T840 938L870 987H1010Q1005 975 999 959T987 925T977 893T971 870Q964 843 951 789T924 666T894 524T866 383T846 265T838 190Q838 136 861 116T926 96Q936 96 955 100T996 111T1035 122T1061 129V55ZM917 1128L749 1317L503
1128H360L698 1475H859L1060 1128H917Z" />
<glyph unicode="&#xe3;" glyph-name="atilde" horiz-adv-x="1067" d="M760 803Q761 808 753 826T732 863T707 898T684 913Q606 913 545 888T437 819T359 718T306 599T277 474T268 354Q268 311 275 268T299 190T347 133T426 111Q462 111 498 127T565 164T619 206T653
238L760 803ZM1061 55Q1049 50 1017 37T946 10T866 -14T795 -25Q758 -25 733 -16T691 11T665 55T653 115Q630 93 599 69T531 23T451 -11T362 -25Q302 -25 257 -8T178 37T124 103T89 181T71 263T66 342Q66 421 83 501T133 656T217 796T332 909T478 984T655 1012Q683
1012 710 1006T762 989T806 965T840 938L870 987H1010Q1005 975 999 959T987 925T977 893T971 870Q964 843 951 789T924 666T894 524T866 383T846 265T838 190Q838 136 861 116T926 96Q936 96 955 100T996 111T1035 122T1061 129V55ZM1140 1415Q1118 1370 1090
1331T1025 1262T943 1215T843 1198Q801 1198 770 1211T707 1245Q694 1254 681 1262T653 1277T619 1288T576 1292Q563 1292 547 1285T514 1266T484 1236T462 1198H353Q374 1243 402 1282T467 1351T548 1398T648 1415Q690 1415 721 1402T785 1366Q811 1351 840 1336T916
1321Q930 1321 946 1328T979 1347T1008 1377T1031 1415H1140Z" />
<glyph unicode="&#xe4;" glyph-name="adieresis" horiz-adv-x="1067" d="M760 803Q761 808 753 826T732 863T707 898T684 913Q606 913 545 888T437 819T359 718T306 599T277 474T268 354Q268 311 275 268T299 190T347 133T426 111Q462 111 498 127T565 164T619
206T653 238L760 803ZM1061 55Q1049 50 1017 37T946 10T866 -14T795 -25Q758 -25 733 -16T691 11T665 55T653 115Q630 93 599 69T531 23T451 -11T362 -25Q302 -25 257 -8T178 37T124 103T89 181T71 263T66 342Q66 421 83 501T133 656T217 796T332 909T478 984T655
1012Q683 1012 710 1006T762 989T806 965T840 938L870 987H1010Q1005 975 999 959T987 925T977 893T971 870Q964 843 951 789T924 666T894 524T866 383T846 265T838 190Q838 136 861 116T926 96Q936 96 955 100T996 111T1035 122T1061 129V55ZM647 1313Q647 1290
638 1269T614 1232T578 1207T534 1198Q512 1198 492 1207T457 1232T433 1268T424 1311Q424 1333 433 1353T457 1390T492 1415T534 1425Q557 1425 577 1416T613 1392T638 1357T647 1313ZM1071 1313Q1071 1290 1063 1269T1039 1232T1004 1207T960 1198Q937 1198 917
1207T881 1232T857 1269T848 1313Q848 1334 857 1354T882 1390T918 1415T960 1425Q983 1425 1003 1416T1039 1392T1062 1357T1071 1313Z" />
<glyph unicode="&#xe5;" glyph-name="aring" horiz-adv-x="1067" d="M760 803Q761 808 753 826T732 863T707 898T684 913Q606 913 545 888T437 819T359 718T306 599T277 474T268 354Q268 311 275 268T299 190T347 133T426 111Q462 111 498 127T565 164T619 206T653
238L760 803ZM1061 55Q1049 50 1017 37T946 10T866 -14T795 -25Q758 -25 733 -16T691 11T665 55T653 115Q630 93 599 69T531 23T451 -11T362 -25Q302 -25 257 -8T178 37T124 103T89 181T71 263T66 342Q66 421 83 501T133 656T217 796T332 909T478 984T655 1012Q683
1012 710 1006T762 989T806 965T840 938L870 987H1010Q1005 975 999 959T987 925T977 893T971 870Q964 843 951 789T924 666T894 524T866 383T846 265T838 190Q838 136 861 116T926 96Q936 96 955 100T996 111T1035 122T1061 129V55ZM896 1397Q896 1445 865 1473T787
1501Q755 1501 726 1488T673 1453T635 1402T621 1341Q621 1293 653 1264T732 1235Q763 1235 793 1248T845 1284T882 1336T896 1397ZM716 1128Q673 1128 637 1142T574 1183T532 1245T517 1323Q517 1379 540 1430T603 1521T694 1584T802 1608Q845 1608 881 1594T945
1553T987 1490T1002 1411Q1002 1354 979 1303T915 1213T824 1151T716 1128Z" />
<glyph unicode="&#xe6;" glyph-name="ae" horiz-adv-x="1526" d="M1489 805Q1489 749 1462 702T1388 617T1281 550T1153 500T1018 467T889 451Q887 441 884 429T878 403T873 378T870 356Q870 288 875 240T901 160T959 113T1065 98Q1134 98 1217 148T1411 297V168Q1383
140 1342 107T1247 44T1130 -5T997 -25Q937 -25 890 -19T806 7T743 65T702 166Q668 118 627 83T540 23T450 -13T362 -25Q302 -25 257 -8T178 37T124 103T89 181T71 263T66 342Q66 421 83 501T133 656T217 796T332 909T478 984T655 1012Q683 1012 705 1006T746 989T780
965T809 938L842 987H979Q976 979 972 966T963 938L954 909Q950 895 946 885Q1012 939 1087 974T1243 1010Q1314 1010 1361 987T1436 930T1477 862T1489 805ZM684 913Q606 913 545 888T437 819T359 718T306 599T277 474T268 354Q268 311 275 268T299 190T347 133T426
111Q456 111 490 124T557 156T615 198T655 240L760 801L684 913ZM1309 807Q1309 847 1279 876T1196 905Q1163 905 1130 888T1067 842T1010 775T961 695T922 610T897 528Q940 532 987 544T1081 576T1168 619T1241 674T1290 737T1309 807Z" />
<glyph unicode="&#xe7;" glyph-name="ccedilla" horiz-adv-x="891" d="M608 -229Q608 -282 585 -324T522 -396T430 -441T319 -457Q296 -457 272 -454T225 -448T185 -440T155 -432L174 -350Q197 -356 235 -364T307 -373Q321 -373 344 -369T388 -355T426 -325T442
-276Q442 -261 436 -251T420 -234T398 -224T374 -221Q365 -221 353 -226T309 -248L351 -24Q296 -19 249 0Q191 26 151 74T88 194T66 356Q66 448 87 532T147 689T237 821T350 923T479 989T616 1012Q671 1012 711 998T776 963T813 917T825 868Q825 848 819 827T796
788T748 756T668 735L551 893Q496 890 453 863T378 792T323 695T286 584T266 475T260 381Q260 331 269 283T300 196T356 133T442 109Q483 109 525 123T609 164T695 226T782 305V176Q750 145 709 110T618 45T508 -5Q484 -13 459 -17L440 -125Q448 -123 455 -122T471
-121Q608 -121 608 -229Z" />
<glyph unicode="&#xe8;" glyph-name="egrave" horiz-adv-x="889" d="M672 807Q672 827 664 846T642 881T607 905T561 915Q527 915 496 897T437 849T384 780T340 698T305 611T281 528Q346 534 415 558T542 619T635 705T672 807ZM854 805Q854 749 828 702T758 617T655
550T532 500T400 467T272 451Q269 431 267 403T264 356Q264 300 277 253T316 172T378 118T459 98Q528 98 611 148T807 297V168Q778 140 736 107T641 44T524 -5T391 -25Q360 -25 324 -19T251 2T182 45T123 113T82 212T66 348Q66 429 85 509T140 663T226 800T336
910T464 983T606 1010Q677 1010 724 987T801 930T842 862T854 805ZM681 1128L384 1323Q363 1337 350 1357T337 1409Q337 1424 341 1440T356 1469T384 1490T429 1499Q451 1499 466 1495T494 1485T515 1469T534 1448L808 1128H681Z" />
<glyph unicode="&#xe9;" glyph-name="eacute" horiz-adv-x="889" d="M672 807Q672 827 664 846T642 881T607 905T561 915Q527 915 496 897T437 849T384 780T340 698T305 611T281 528Q346 534 415 558T542 619T635 705T672 807ZM854 805Q854 749 828 702T758 617T655
550T532 500T400 467T272 451Q269 431 267 403T264 356Q264 300 277 253T316 172T378 118T459 98Q528 98 611 148T807 297V168Q778 140 736 107T641 44T524 -5T391 -25Q360 -25 324 -19T251 2T182 45T123 113T82 212T66 348Q66 429 85 509T140 663T226 800T336
910T464 983T606 1010Q677 1010 724 987T801 930T842 862T854 805ZM938 1411Q938 1382 925 1363T889 1327L582 1128H438L717 1448Q727 1460 738 1469T762 1485T793 1495T834 1499Q861 1499 880 1491T912 1471T931 1442T938 1411Z" />
<glyph unicode="&#xea;" glyph-name="ecircumflex" horiz-adv-x="889" d="M672 807Q672 827 664 846T642 881T607 905T561 915Q527 915 496 897T437 849T384 780T340 698T305 611T281 528Q346 534 415 558T542 619T635 705T672 807ZM854 805Q854 749 828 702T758
617T655 550T532 500T400 467T272 451Q269 431 267 403T264 356Q264 300 277 253T316 172T378 118T459 98Q528 98 611 148T807 297V168Q778 140 736 107T641 44T524 -5T391 -25Q360 -25 324 -19T251 2T182 45T123 113T82 212T66 348Q66 429 85 509T140 663T226
800T336 910T464 983T606 1010Q677 1010 724 987T801 930T842 862T854 805ZM812 1128L644 1317L398 1128H255L593 1475H754L955 1128H812Z" />
<glyph unicode="&#xeb;" glyph-name="edieresis" horiz-adv-x="889" d="M672 807Q672 827 664 846T642 881T607 905T561 915Q527 915 496 897T437 849T384 780T340 698T305 611T281 528Q346 534 415 558T542 619T635 705T672 807ZM854 805Q854 749 828 702T758
617T655 550T532 500T400 467T272 451Q269 431 267 403T264 356Q264 300 277 253T316 172T378 118T459 98Q528 98 611 148T807 297V168Q778 140 736 107T641 44T524 -5T391 -25Q360 -25 324 -19T251 2T182 45T123 113T82 212T66 348Q66 429 85 509T140 663T226
800T336 910T464 983T606 1010Q677 1010 724 987T801 930T842 862T854 805ZM542 1313Q542 1290 533 1269T509 1232T473 1207T429 1198Q407 1198 387 1207T352 1232T328 1268T319 1311Q319 1333 328 1353T352 1390T387 1415T429 1425Q452 1425 472 1416T508 1392T533
1357T542 1313ZM966 1313Q966 1290 958 1269T934 1232T899 1207T855 1198Q832 1198 812 1207T776 1232T752 1269T743 1313Q743 1334 752 1354T777 1390T813 1415T855 1425Q878 1425 898 1416T934 1392T957 1357T966 1313Z" />
<glyph unicode="&#xec;" glyph-name="igrave" horiz-adv-x="545" d="M539 59Q527 54 495 40T420 12T330 -14T240 -25Q187 -25 156 -7T110 40T93 105T98 176L229 870L53 889V948L362 1012H446L291 193Q287 172 291 153T306 120T333 97T371 88Q389 88 413 94T462
109T508 126T539 137V59ZM718 1128L421 1323Q400 1337 387 1357T374 1409Q374 1424 378 1440T393 1469T421 1490T466 1499Q488 1499 503 1495T531 1485T552 1469T571 1448L845 1128H718Z" />
<glyph unicode="&#xed;" glyph-name="iacute" horiz-adv-x="545" d="M539 59Q527 54 495 40T420 12T330 -14T240 -25Q187 -25 156 -7T110 40T93 105T98 176L229 870L53 889V948L362 1012H446L291 193Q287 172 291 153T306 120T333 97T371 88Q389 88 413 94T462
109T508 126T539 137V59ZM975 1411Q975 1382 962 1363T926 1327L619 1128H475L754 1448Q764 1460 775 1469T799 1485T830 1495T871 1499Q898 1499 917 1491T949 1471T968 1442T975 1411Z" />
<glyph unicode="&#xee;" glyph-name="icircumflex" horiz-adv-x="545" d="M539 59Q527 54 495 40T420 12T330 -14T240 -25Q187 -25 156 -7T110 40T93 105T98 176L229 870L53 889V948L362 1012H446L291 193Q287 172 291 153T306 120T333 97T371 88Q389 88 413 94T462
109T508 126T539 137V59ZM849 1128L681 1317L435 1128H292L630 1475H791L992 1128H849Z" />
<glyph unicode="&#xef;" glyph-name="idieresis" horiz-adv-x="545" d="M539 59Q527 54 495 40T420 12T330 -14T240 -25Q187 -25 156 -7T110 40T93 105T98 176L229 870L53 889V948L362 1012H446L291 193Q287 172 291 153T306 120T333 97T371 88Q389 88 413 94T462
109T508 126T539 137V59ZM579 1313Q579 1290 570 1269T546 1232T510 1207T466 1198Q444 1198 424 1207T389 1232T365 1268T356 1311Q356 1333 365 1353T389 1390T424 1415T466 1425Q489 1425 509 1416T545 1392T570 1357T579 1313ZM1003 1313Q1003 1290 995 1269T971
1232T936 1207T892 1198Q869 1198 849 1207T813 1232T789 1269T780 1313Q780 1334 789 1354T814 1390T850 1415T892 1425Q915 1425 935 1416T971 1392T994 1357T1003 1313Z" />
<glyph unicode="&#xf0;" glyph-name="eth" horiz-adv-x="1036" d="M758 596Q758 644 755 684T747 760T734 827T717 891Q700 905 675 914T614 924Q553 924 504 900T417 834T352 737T307 621T281 497T272 375Q272 295 288 238T330 143T388 88T455 70Q504 70 546
92T621 152T680 242T723 352T749 473T758 596ZM764 1253Q800 1189 835 1110T897 945T941 771T958 602Q958 541 946 471T909 331T842 197T742 84T606 5T430 -25Q349 -25 282 2T167 79T93 202T66 367Q66 451 83 532T133 684T213 816T318 919T446 987T592 1012Q618
1012 642 1004T690 981Q679 1009 666 1039T640 1098T616 1151T598 1190L313 1073L276 1165L545 1268L473 1368L315 1409L324 1470L590 1509L713 1335L954 1432L993 1346L764 1253Z" />
<glyph unicode="&#xf1;" glyph-name="ntilde" horiz-adv-x="1085" d="M1079 41Q1066 36 1034 26T961 4T879 -16T805 -25Q787 -25 756 -22T695 -6T648 31T639 96L764 725Q771 766 765 793T744 836T710 859T674 866Q649 866 613 852T536 813T454 757T379 688L238
0H47L225 870L53 889V948L362 1012H444L406 821Q440 855 484 889T578 951T681 995T786 1012Q898 1012 945 950T969 750L860 172Q855 143 864 126T889 100T922 89T948 86Q976 86 1009 94T1077 113L1079 41ZM1085 1415Q1063 1370 1035 1331T970 1262T888 1215T788
1198Q746 1198 715 1211T652 1245Q639 1254 626 1262T598 1277T564 1288T521 1292Q508 1292 492 1285T459 1266T429 1236T407 1198H298Q319 1243 347 1282T412 1351T493 1398T593 1415Q635 1415 666 1402T730 1366Q756 1351 785 1336T861 1321Q875 1321 891 1328T924
1347T953 1377T976 1415H1085Z" />
<glyph unicode="&#xf2;" glyph-name="ograve" horiz-adv-x="1036" d="M766 623Q766 696 752 752T714 846T657 904T584 924Q517 924 460 876T360 749T294 572T270 373Q270 297 284 240T323 145T381 87T453 68Q501 68 543 92T620 158T682 255T728 371T756 498T766
623ZM973 614Q973 531 955 452T902 301T819 171T710 68T578 0T428 -25Q344 -25 276 2T161 79T89 201T63 362Q63 445 81 525T132 678T214 811T322 917T454 987T606 1012Q680 1012 746 989T863 917T943 793T973 614ZM724 1128L427 1323Q406 1337 393 1357T380 1409Q380
1424 384 1440T399 1469T427 1490T472 1499Q494 1499 509 1495T537 1485T558 1469T577 1448L851 1128H724Z" />
<glyph unicode="&#xf3;" glyph-name="oacute" horiz-adv-x="1036" d="M766 623Q766 696 752 752T714 846T657 904T584 924Q517 924 460 876T360 749T294 572T270 373Q270 297 284 240T323 145T381 87T453 68Q501 68 543 92T620 158T682 255T728 371T756 498T766
623ZM973 614Q973 531 955 452T902 301T819 171T710 68T578 0T428 -25Q344 -25 276 2T161 79T89 201T63 362Q63 445 81 525T132 678T214 811T322 917T454 987T606 1012Q680 1012 746 989T863 917T943 793T973 614ZM981 1411Q981 1382 968 1363T932 1327L625 1128H481L760
1448Q770 1460 781 1469T805 1485T836 1495T877 1499Q904 1499 923 1491T955 1471T974 1442T981 1411Z" />
<glyph unicode="&#xf4;" glyph-name="ocircumflex" horiz-adv-x="1036" d="M766 623Q766 696 752 752T714 846T657 904T584 924Q517 924 460 876T360 749T294 572T270 373Q270 297 284 240T323 145T381 87T453 68Q501 68 543 92T620 158T682 255T728 371T756 498T766
623ZM973 614Q973 531 955 452T902 301T819 171T710 68T578 0T428 -25Q344 -25 276 2T161 79T89 201T63 362Q63 445 81 525T132 678T214 811T322 917T454 987T606 1012Q680 1012 746 989T863 917T943 793T973 614ZM855 1128L687 1317L441 1128H298L636 1475H797L998
1128H855Z" />
<glyph unicode="&#xf5;" glyph-name="otilde" horiz-adv-x="1036" d="M766 623Q766 696 752 752T714 846T657 904T584 924Q517 924 460 876T360 749T294 572T270 373Q270 297 284 240T323 145T381 87T453 68Q501 68 543 92T620 158T682 255T728 371T756 498T766
623ZM973 614Q973 531 955 452T902 301T819 171T710 68T578 0T428 -25Q344 -25 276 2T161 79T89 201T63 362Q63 445 81 525T132 678T214 811T322 917T454 987T606 1012Q680 1012 746 989T863 917T943 793T973 614ZM1078 1415Q1056 1370 1028 1331T963 1262T881
1215T781 1198Q739 1198 708 1211T645 1245Q632 1254 619 1262T591 1277T557 1288T514 1292Q501 1292 485 1285T452 1266T422 1236T400 1198H291Q312 1243 340 1282T405 1351T486 1398T586 1415Q628 1415 659 1402T723 1366Q749 1351 778 1336T854 1321Q868 1321
884 1328T917 1347T946 1377T969 1415H1078Z" />
<glyph unicode="&#xf6;" glyph-name="odieresis" horiz-adv-x="1036" d="M766 623Q766 696 752 752T714 846T657 904T584 924Q517 924 460 876T360 749T294 572T270 373Q270 297 284 240T323 145T381 87T453 68Q501 68 543 92T620 158T682 255T728 371T756 498T766
623ZM973 614Q973 531 955 452T902 301T819 171T710 68T578 0T428 -25Q344 -25 276 2T161 79T89 201T63 362Q63 445 81 525T132 678T214 811T322 917T454 987T606 1012Q680 1012 746 989T863 917T943 793T973 614ZM585 1313Q585 1290 576 1269T552 1232T516 1207T472
1198Q450 1198 430 1207T395 1232T371 1268T362 1311Q362 1333 371 1353T395 1390T430 1415T472 1425Q495 1425 515 1416T551 1392T576 1357T585 1313ZM1009 1313Q1009 1290 1001 1269T977 1232T942 1207T898 1198Q875 1198 855 1207T819 1232T795 1269T786 1313Q786
1334 795 1354T820 1390T856 1415T898 1425Q921 1425 941 1416T977 1392T1000 1357T1009 1313Z" />
<glyph unicode="&#xf7;" glyph-name="divide" horiz-adv-x="2048" d="M1147 285Q1147 259 1138 237T1111 199T1072 174T1024 164Q998 164 976 173T937 199T911 237T901 285Q901 311 910 333T937 372T976 398T1024 408Q1049 408 1071 399T1111 373T1137 334T1147
285ZM410 551V678H1638V551H410ZM1147 944Q1147 918 1138 896T1111 857T1072 831T1024 821Q998 821 976 830T937 856T911 895T901 944Q901 969 910 991T937 1031T976 1057T1024 1067Q1049 1067 1071 1058T1111 1031T1137 992T1147 944Z" />
<glyph unicode="&#xf8;" glyph-name="oslash" horiz-adv-x="1036" d="M766 623Q766 660 762 692T752 752L348 113Q393 68 453 68Q501 68 543 92T620 158T682 255T728 371T756 498T766 623ZM707 858Q656 924 584 924Q517 924 460 876T360 749T294 572T270 373Q270
320 277 279T297 203L707 858ZM973 614Q973 531 955 452T902 301T819 171T710 68T578 0T428 -25Q386 -25 350 -18T279 2L166 -176L90 -125L199 47Q134 97 99 176T63 362Q63 445 81 525T132 678T214 811T322 917T454 987T606 1012Q699 1012 778 975L877 1130L958
1079L858 922Q911 872 942 797T973 614Z" />
<glyph unicode="&#xf9;" glyph-name="ugrave" horiz-adv-x="1079" d="M1073 49Q1054 38 1021 25T948 1T869 -17T795 -25Q737 -25 709 -6T671 39T661 91T662 129Q581 52 493 14T301 -25Q230 -25 185 0T117 63T89 146T92 231L225 870L53 889V948L362 1012H446L283
231Q277 205 285 182T310 141T348 113T389 102Q426 102 463 112T538 141T609 182T672 233L827 987H1018L854 199Q847 167 854 146T875 110T908 90T944 84Q964 84 997 90T1073 121V49ZM737 1128L440 1323Q419 1337 406 1357T393 1409Q393 1424 397 1440T412 1469T440
1490T485 1499Q507 1499 522 1495T550 1485T571 1469T590 1448L864 1128H737Z" />
<glyph unicode="&#xfa;" glyph-name="uacute" horiz-adv-x="1079" d="M1073 49Q1054 38 1021 25T948 1T869 -17T795 -25Q737 -25 709 -6T671 39T661 91T662 129Q581 52 493 14T301 -25Q230 -25 185 0T117 63T89 146T92 231L225 870L53 889V948L362 1012H446L283
231Q277 205 285 182T310 141T348 113T389 102Q426 102 463 112T538 141T609 182T672 233L827 987H1018L854 199Q847 167 854 146T875 110T908 90T944 84Q964 84 997 90T1073 121V49ZM994 1411Q994 1382 981 1363T945 1327L638 1128H494L773 1448Q783 1460 794
1469T818 1485T849 1495T890 1499Q917 1499 936 1491T968 1471T987 1442T994 1411Z" />
<glyph unicode="&#xfb;" glyph-name="ucircumflex" horiz-adv-x="1079" d="M1073 49Q1054 38 1021 25T948 1T869 -17T795 -25Q737 -25 709 -6T671 39T661 91T662 129Q581 52 493 14T301 -25Q230 -25 185 0T117 63T89 146T92 231L225 870L53 889V948L362 1012H446L283
231Q277 205 285 182T310 141T348 113T389 102Q426 102 463 112T538 141T609 182T672 233L827 987H1018L854 199Q847 167 854 146T875 110T908 90T944 84Q964 84 997 90T1073 121V49ZM868 1128L700 1317L454 1128H311L649 1475H810L1011 1128H868Z" />
<glyph unicode="&#xfc;" glyph-name="udieresis" horiz-adv-x="1079" d="M1073 49Q1054 38 1021 25T948 1T869 -17T795 -25Q737 -25 709 -6T671 39T661 91T662 129Q581 52 493 14T301 -25Q230 -25 185 0T117 63T89 146T92 231L225 870L53 889V948L362 1012H446L283
231Q277 205 285 182T310 141T348 113T389 102Q426 102 463 112T538 141T609 182T672 233L827 987H1018L854 199Q847 167 854 146T875 110T908 90T944 84Q964 84 997 90T1073 121V49ZM598 1313Q598 1290 589 1269T565 1232T529 1207T485 1198Q463 1198 443 1207T408
1232T384 1268T375 1311Q375 1333 384 1353T408 1390T443 1415T485 1425Q508 1425 528 1416T564 1392T589 1357T598 1313ZM1022 1313Q1022 1290 1014 1269T990 1232T955 1207T911 1198Q888 1198 868 1207T832 1232T808 1269T799 1313Q799 1334 808 1354T833 1390T869
1415T911 1425Q934 1425 954 1416T990 1392T1013 1357T1022 1313Z" />
<glyph unicode="&#xfd;" glyph-name="yacute" horiz-adv-x="1018" d="M971 846Q959 834 936 802T889 730T841 648T803 573Q781 524 752 454T686 304T606 137T514 -33Q466 -114 412 -192T296 -332T168 -431T27 -469Q-29 -469 -66 -455T-125 -421T-155 -377T-164
-334Q-164 -311 -154 -290T-124 -252T-79 -225T-23 -213L96 -332Q128 -329 159 -307T224 -239T300 -126T393 37Q391 49 383 90T364 191T338 323T307 469Q291 541 274 613T240 744T210 839T190 877L4 891V942L32 951Q52 958 76 965T127 981T178 996T221 1007T250
1012Q283 1012 308 997T352 952T388 883T420 791Q446 700 474 566T532 266L844 1012H903L1073 956V909L971 846ZM952 1411Q952 1382 939 1363T903 1327L596 1128H452L731 1448Q741 1460 752 1469T776 1485T807 1495T848 1499Q875 1499 894 1491T926 1471T945 1442T952
1411Z" />
<glyph unicode="&#xfe;" glyph-name="thorn" horiz-adv-x="1012" d="M743 625Q743 670 734 716T705 801T655 863T584 887Q547 887 510 871T443 834T390 794T360 768L238 133Q247 128 263 118T302 97T349 80T401 72Q457 72 504 97T589 164T656 263T704 380T733
505T743 625ZM946 633Q946 549 926 468T869 313T778 178T660 71T519 1T360 -25Q314 -25 277 -12T215 12L150 -317Q146 -334 154 -344T190 -358L319 -369V-446H-197V-369L-90 -358Q-47 -355 -41 -317L289 1368L117 1386V1448L426 1509H506L383 885Q409 902 442 924T514
965T593 998T678 1012Q756 1012 807 979T889 891T933 769T946 633Z" />
<glyph unicode="&#xff;" glyph-name="ydieresis" horiz-adv-x="1018" d="M971 846Q959 834 936 802T889 730T841 648T803 573Q781 524 752 454T686 304T606 137T514 -33Q466 -114 412 -192T296 -332T168 -431T27 -469Q-29 -469 -66 -455T-125 -421T-155 -377T-164
-334Q-164 -311 -154 -290T-124 -252T-79 -225T-23 -213L96 -332Q128 -329 159 -307T224 -239T300 -126T393 37Q391 49 383 90T364 191T338 323T307 469Q291 541 274 613T240 744T210 839T190 877L4 891V942L32 951Q52 958 76 965T127 981T178 996T221 1007T250
1012Q283 1012 308 997T352 952T388 883T420 791Q446 700 474 566T532 266L844 1012H903L1073 956V909L971 846ZM556 1313Q556 1290 547 1269T523 1232T487 1207T443 1198Q421 1198 401 1207T366 1232T342 1268T333 1311Q333 1333 342 1353T366 1390T401 1415T443
1425Q466 1425 486 1416T522 1392T547 1357T556 1313ZM980 1313Q980 1290 972 1269T948 1232T913 1207T869 1198Q846 1198 826 1207T790 1232T766 1269T757 1313Q757 1334 766 1354T791 1390T827 1415T869 1425Q892 1425 912 1416T948 1392T971 1357T980 1313Z"
/>
</font>
</defs>
</svg>
